<?xml version="1.0" standalone="no"?><!DOCTYPE svg PUBLIC "-//W3C//DTD SVG 1.1//EN" "http://www.w3.org/Graphics/SVG/1.1/DTD/svg11.dtd" ><svg xmlns="http://www.w3.org/2000/svg"><metadata></metadata><defs><font id="SCFwxz:Version 2.00" horiz-adv-x="2150"><font-face font-family="SCFwxz" font-weight="400" font-stretch="normal" units-per-em="2048" panose-1="3 0 5 9 0 0 0 0 0 0" ascent="2189" descent="-555" x-height="0" bbox="0 -512 2099 1918" underline-thickness="102" underline-position="-205" unicode-range="U+002c-ff1b" /><missing-glyph horiz-adv-x="2048" d="M680 32 l688 0 l0 1368 l-688 0 l0 -1368 Z" /><glyph glyph-name="" unicode="," d="M280 232 q40 8 112 -64 q80 -80 24 -184 q-80 -96 -136 -120 q-48 -32 -88 -32 q80 96 104 176 q8 72 -112 160 q-16 16 0 32 q32 32 96 32 Z" /><glyph glyph-name="" unicode="&#x300a;" d="M1896 1528 q-96 -184 -408 -800 q304 -600 432 -816 q0 -48 -80 -32 q-328 632 -440 832 q128 280 424 856 q16 8 40 8 l32 -48 ZM1624 1624 q56 8 80 -40 q-280 -568 -432 -872 q64 -160 448 -832 q-16 -56 -72 -40 q-344 648 -480 880 q96 168 272 528 q72 144 184 376 Z" /><glyph glyph-name="" unicode="&#x300b;" d="M296 1472 q280 -536 376 -736 q-160 -336 -408 -816 q-24 -24 -80 -16 q-24 16 -24 24 q288 568 416 792 q-16 64 -272 544 q-120 216 -144 296 q0 40 72 16 l64 -104 ZM448 1592 q184 -312 280 -504 q104 -208 152 -336 q-168 -344 -256 -536 q-88 -192 -152 -296 q-88 -48 -88 16 l56 112 q200 392 352 704 q-368 696 -432 816 q8 48 88 24 Z" /><glyph glyph-name="" unicode="&#x3002;" d="M1036 939 q88 0 152 -56 q80 -72 80 -176 q0 -72 -56 -136 q-64 -80 -176 -80 q-80 0 -136 64 q-56 -16 -96 24 q-24 32 -32 96 q-8 120 64 192 q80 72 200 72 ZM1020 875 q-72 0 -120 -48 q-48 -48 -48 -128 q0 -72 32 -96 q24 -32 104 -32 q88 0 144 40 q56 40 56 120 q0 56 -40 96 q-48 48 -128 48 Z" /><glyph glyph-name="" unicode="&#xff1b;" d="M1000 1000 q24 0 72 -16 q48 -16 96 -80 l0 -32 q0 -88 -56 -144 q-8 -8 -56 -8 q-72 24 -192 208 q24 64 136 72 ZM968 336 q216 -48 216 -208 q0 -48 -96 -120 q-96 -72 -208 -112 q-24 -8 -32 0 l16 24 q96 96 128 168 q8 32 -104 120 q-144 176 80 128 Z" /><glyph glyph-name="" unicode="&#xff0c;" d="M1006 923 q224 -40 224 -152 q0 -56 -56 -120 q-40 -48 -192 -120 q-48 -16 -64 -8 q48 88 112 144 q40 32 0 72 q-80 80 -144 128 q-24 16 8 32 q72 32 112 24 Z" /><glyph glyph-name="" unicode="·" d="M1232 736 q-16 184 -200 200 l-8 0 q-184 -16 -200 -208 l0 -8 q8 -184 200 -192 l8 0 q184 16 200 192 l0 16 Z" /><glyph glyph-name="" unicode="." d="M197 953 q-152 -16 -168 -136 q8 -120 168 -128 q160 8 168 128 q-16 128 -168 136 Z" /><glyph glyph-name="" unicode="&#x4e00;" d="M1466 987 q91 0 152 -28 q126 -26 126 -118 l13 -61 q-13 -37 -70 -37 l-90 0 q-20 0 -144 62 l-86 12 q-80 0 -443 -74 q-33 -20 -103 -20 q-45 -32 -278 -105 q-75 0 -251 162 l0 4 l4 4 l4 0 q59 -28 78 -28 q74 0 349 77 q316 89 357 89 q349 61 382 61 Z" /><glyph glyph-name="" unicode="&#x4e07;" d="M1671 1233 q-103 -43 -238 -33 q-135 10 -255 -13 q-240 -15 -427.5 -80.5 q-187.5 -65.5 -418.5 -90.5 q-29 36 -23.5 74.5 q5.5 38.5 -44.5 -24.5 q-2 -172 144.5 -190 q146.5 -18 274.5 7 q142 124 421 149 l130 15 q76 9 111 -22 q-85 -111 -206 -124 q-134 -41 -167.5 -179 q-33.5 -138 -144.5 -212 q-148 -142 -276 -283 q31 -133 149.5 -91 q118.5 42 186.5 134 q87 79 52.5 -32.5 q-34.5 -111.5 46.5 -150.5 q68 -51 162 -5 q94 46 168 94 q112 74 211 213 q99 139 -48 245 q-47 47 -142 32.5 q-95 -14.5 -54 107.5 q-6 54 -20.5 105 q-14.5 51 59.5 80 q132 91 305.5 77.5 q173.5 -13.5 299.5 -23.5 q-70 170 -256 220 ZM1149 851 q14 -7 -47.5 -53.5 q-61.5 -46.5 -8.5 33.5 l56 20 ZM1056 770 l2 0 q15 11 8.5 -5 q-6.5 -16 -10.5 5 ZM1192 625 q52 -23 117 -52 q65 -29 -18 -97 q-115 -102 -235 -133 q-66 74 6.5 156.5 q72.5 82.5 129.5 125.5 Z" /><glyph glyph-name="" unicode="&#x4e09;" d="M1366 1283 q135 -36 135 -60 l0 -10 q0 -16 -35 -60 q-49 -125 -70 -125 q-75 -12 -130 -55 q0 25 -245 25 q-263 66 -305 140 l0 10 l20 10 q68 -29 95 -30 q54 18 165 35 q5 16 100 30 q33 41 185 80 l85 10 ZM1220 796 l5 0 q0 -13 139 -23 q65 -38 65 -77 q-44 -119 -100 -119 q-130 -64 -265 -64 q0 -9 -39 -9 l-31 5 l-30 -5 q-177 27 -244 82 q-43 51 -43 69 l17 13 q93 -54 135 -54 q98 51 361 141 q30 32 30 41 ZM1525 303 l75 0 q124 0 175 -100 l5 -110 q-50 -50 -120 -50 l-135 15 l-45 -5 l-5 5 l-5 0 q-182 -15 -500 -110 q-243 -60 -300 -60 l-5 0 q-85 0 -340 105 l0 10 l10 10 l40 0 q49 0 285 80 q412 130 435 130 q372 80 430 80 Z" /><glyph glyph-name="" unicode="&#x4e0b;" d="M1506 1406 q244 0 280 -115 l0 -50 q-22 -30 -60 -50 q-184 0 -355 30 q-36 0 -200 -75 q-110 0 -245 -70 l-10 -15 l0 -10 q48 -85 130 -85 q94 -25 145 -90 q19 -80 90 -80 q198 0 380 -150 l60 -130 l-5 -70 l5 -30 l-15 -20 l-5 0 l-350 155 q-96 100 -105 100 l-5 0 l-10 -10 l0 -10 q21 -50 45 -350 l0 -65 q0 -143 -40 -350 q-70 -55 -145 -55 q-60 0 -100 150 q95 99 95 270 l5 230 l0 45 q0 172 -140 290 q-40 96 -70 210 l-20 10 q-61 0 -235 -60 l-95 -10 q-171 43 -220 80 l-90 50 l0 10 q0 13 170 30 q165 55 190 55 q293 90 610 160 q0 12 220 65 l95 10 Z" /><glyph glyph-name="" unicode="&#x4e0d;" d="M1438 1309 q224 -30 224 -89 q0 -18 -102 -99 l-15 0 l-146 13 q-175 -13 -175 -41 l0 -3 q17 0 24 -68 l0 -4 q0 -31 -127 -206 l0 -18 q39 -214 59 -265 l-5 -5 l-5 0 l39 -305 l0 -23 q0 -75 -190 -330 l-49 -19 q-56 12 -122 77 l10 8 l54 -8 q43 26 63 255 l5 35 l-5 18 l5 28 l-15 175 l-14 0 q-17 -23 -117 -274 q-117 -215 -273 -215 q-76 36 -127 98 q0 14 83 45 q102 67 156 166 l-5 14 q0 338 141 691 l-14 3 q-19 0 -229 -102 l-59 -10 q-67 0 -166 99 q-91 123 -97 175 l15 9 l4 0 q91 -49 200 -49 l34 0 q60 0 200 45 q115 31 146 31 q438 130 478 130 q58 18 117 18 ZM980 1086 l0 -5 q0 -29 34 -52 l10 0 q16 3 39 61 q-4 15 -20 19 q-63 -8 -63 -23 ZM892 813 q-53 -160 -68 -236 l5 -14 l10 0 q13 0 73 193 l5 52 l-5 5 l-20 0 ZM1258 582 q61 0 399 -118 q181 -90 181 -165 q24 -169 24 -249 l-15 -10 q-73 78 -229 113 q-98 97 -199 273 q-114 125 -171 137 l-5 5 l0 4 q0 10 15 10 Z" /><glyph glyph-name="" unicode="&#x4e16;" d="M1151 1450 l50 -5 l30 0 l55 5 q215 -35 215 -135 l0 -20 l-15 -35 l10 -55 l-10 -65 l5 -15 l-10 -100 l0 -75 l25 -25 l40 5 q270 -30 270 -50 q105 -54 105 -95 q-24 -115 -75 -115 l-90 -20 q-140 30 -280 30 q-34 0 -40 -120 q-84 -375 -145 -375 q-110 41 -110 90 l-20 25 l-5 0 q-10 0 -30 -160 q-25 -50 -55 -50 l-20 0 q-36 0 -90 160 l0 5 l10 160 l0 100 l-15 15 l-10 0 q-242 -135 -260 -160 l-5 -20 q12 -345 50 -345 l5 0 q182 0 635 150 l40 5 q187 -28 190 -60 q15 0 40 -60 q0 -68 -145 -125 q-20 -10 -55 -10 l-85 0 l-20 5 l-105 -25 l-5 5 l-5 0 l-85 -25 l-10 0 l-135 15 l-20 -5 l-40 5 l-100 -5 l-70 20 l-5 0 q-66 -85 -100 -85 l-10 0 q-110 73 -110 275 q-13 180 -45 180 l-5 0 q-108 -65 -170 -65 q-56 0 -115 170 q-10 23 -10 65 q7 166 30 180 l10 0 q47 -75 55 -75 l10 0 q75 0 75 50 l0 5 q-80 113 -85 155 l15 15 q98 -70 165 -70 l135 -50 l350 125 q20 21 20 40 l0 15 q0 96 -60 215 l-90 30 q-110 96 -110 185 q4 25 15 25 l5 0 l35 -70 l30 -20 l110 5 q112 0 190 -120 q20 -34 45 -190 q30 -40 45 -45 l10 0 q100 0 125 45 l0 430 q0 51 -115 80 q-60 32 -60 40 l0 5 l5 5 l0 5 ZM1136 545 l5 -55 l-5 -105 l25 -20 l35 0 q80 0 80 130 q9 0 15 135 l-25 15 q-125 -22 -125 -70 l-5 -30 Z" /><glyph glyph-name="" unicode="&#x4e1c;" d="M947 1512 q124 0 245 -140 l0 -20 q0 -14 -50 -90 l-5 -20 q20 -17 75 -35 q30 -20 30 -45 l0 -5 q0 -24 -110 -50 q-15 0 -25 -145 l20 -10 q143 35 325 60 q66 0 155 -95 q30 -24 30 -50 l0 -5 q0 -36 -100 -90 l-175 -155 q0 -25 95 -25 l30 -65 l5 -5 l0 -10 q0 -28 -240 -55 q-125 -27 -125 -45 l0 -15 l10 -95 l0 -25 q0 -37 260 -55 q31 -14 195 -35 q185 -63 185 -150 l0 -15 q0 -15 -85 -20 q0 -9 -35 -15 q-209 25 -415 90 l-70 45 q-40 0 -40 -230 q-17 -205 -80 -205 l-15 0 q-25 0 -60 45 l-165 135 l-40 20 q-21 0 -80 -30 l-215 20 l-10 15 l125 80 q182 126 340 340 l5 20 l0 5 q0 10 -15 10 q-95 -65 -240 -65 l-5 -5 l-5 0 q-79 0 -215 135 l10 10 l15 0 q84 -55 125 -55 l55 0 q20 10 20 30 q-125 124 -125 320 q0 179 130 260 l90 75 l0 10 q0 13 -110 30 q-115 22 -115 35 l0 5 l15 15 l85 0 q244 0 275 60 q0 170 -65 170 q-114 47 -125 60 l0 5 q0 17 210 70 ZM637 802 l25 -15 q269 96 280 120 l5 5 l0 5 q0 155 -35 155 q-265 -118 -265 -215 l-10 -55 ZM1102 762 q0 -14 25 -25 q20 10 55 10 l55 -20 q25 0 85 135 q0 13 -25 25 q-190 -45 -190 -70 l-5 -55 ZM792 747 l-50 5 l-25 -5 l-45 5 l-10 -15 q49 -130 95 -130 q200 51 200 90 l0 25 q0 30 -30 45 q-67 -20 -135 -20 ZM1117 617 l0 -40 l20 -20 q60 0 85 110 l-20 10 q-85 -22 -85 -60 ZM797 552 q18 0 35 -110 l5 -5 l5 0 q115 27 115 75 l5 50 q0 15 -30 30 q-135 -10 -135 -35 l0 -5 ZM952 42 q-44 -69 -155 -110 l-10 -15 l0 -15 q0 -17 100 -25 l40 5 l30 0 q25 12 25 40 l0 90 q0 30 -30 30 Z" /><glyph glyph-name="" unicode="&#x4e43;" d="M1447 1365 l72 -4 q90 -6 90 -61 l0 -9 q0 -57 -138 -289 l-34 -90 l10 -67 l0 -51 q0 -20 153 -56 q91 -64 91 -149 q34 -102 72 -324 q0 -195 -63 -247 q-108 -156 -186 -150 q0 -8 -58 -15 q-104 7 -268 100 q-68 22 -167 103 l0 14 l9 8 q181 -67 263 -71 q163 14 163 49 q72 113 72 237 l0 33 l-5 65 l5 18 q-26 201 -52 203 q0 16 -91 33 q-86 64 -86 238 l66 274 l10 41 l-5 5 l-5 0 q-85 -70 -249 -151 l-5 -4 l0 -19 q91 -126 91 -172 q0 -48 -143 -233 l-259 -387 l-245 -342 q-46 -38 -95 -35 q-86 24 -86 70 l0 5 q143 335 167 369 l39 7 l14 -38 l-5 -5 l0 -4 q6 -24 15 -25 q10 0 105 124 q75 77 144 232 q55 97 114 249 q29 55 54 150 l-15 14 l-19 1 q-90 -60 -436 -135 l-96 -3 q-158 52 -158 94 l14 8 l5 -1 l130 -40 q0 26 114 39 q196 68 422 192 q332 185 465 202 Z" /><glyph glyph-name="" unicode="&#x4e4b;" d="M818 1411 q5 22 27 -5 q19 -37 107 -75 l40 0 q76 19 107 -26 q13 -34 0 -67 l-80 -107 q-47 -42 -94 0 q-107 107 -107 280 ZM1032 944 l80 0 q93 -40 134 -134 l0 -66 q0 -73 -294 -428 l0 -40 q69 -54 448 -129 q143 -76 131 -131 q5 -44 -104 -123 q-383 64 -515 196 q-70 43 -107 187 l0 40 q0 74 120 267 q78 127 88 153 q5 25 -21 34 l-174 -67 q-77 0 -213 187 q7 32 26 27 l134 -27 q73 3 267 54 Z" /><glyph glyph-name="" unicode="&#x4e4c;" d="M857 1570 l10 0 q72 0 115 -105 l0 -50 q0 -40 -80 -120 l0 -5 l5 -15 l10 0 q64 0 345 135 q81 35 160 35 l10 0 q131 0 155 -105 q0 -58 -105 -240 l5 -50 l0 -20 q-9 -100 -65 -100 l-15 0 l-240 5 q-240 -34 -240 -65 l0 -5 q0 -105 40 -105 q30 0 335 130 l90 10 l5 0 q29 0 40 -30 q0 -94 -130 -110 q-252 -52 -375 -125 q-40 -39 -40 -95 l0 -45 l25 -25 q33 0 315 135 q187 80 285 80 q108 0 150 -85 l10 -55 q-7 -165 -15 -165 l5 -130 l0 -45 q0 -269 -115 -430 q-52 -40 -105 -40 l-30 0 q-160 0 -345 395 q-20 0 -20 10 l-80 -15 q-75 0 -235 55 q-27 0 -105 -100 q-83 -60 -125 -60 q-65 0 -155 75 l0 5 q0 16 75 20 q61 28 185 110 q33 13 135 30 l0 25 l-15 5 l-65 -5 q-110 0 -110 60 l0 50 q0 44 70 65 q69 -35 95 -35 l15 0 q50 0 65 145 l5 20 q0 12 -75 60 l-5 25 l0 50 q6 50 45 50 l30 -45 q25 8 25 30 l5 150 q-22 21 -85 55 l0 10 l5 5 l0 5 l60 -5 l10 0 q18 9 25 30 q0 157 -55 185 l-5 0 l-125 -105 q-60 -45 -115 -45 l-20 0 q-45 7 -45 40 q3 65 165 170 q160 125 160 225 q33 90 50 90 ZM947 1005 l20 -15 q27 0 285 85 q84 0 125 180 q-10 22 -20 25 l-230 -90 q-165 -22 -165 -50 q-15 -79 -15 -135 ZM857 295 q5 -40 35 -40 q301 90 430 90 q118 0 145 -100 q-34 -90 -110 -90 q0 -10 -60 -10 l-35 0 q-40 6 -40 30 l5 25 l-20 15 l-5 0 q-28 0 -40 -25 l0 -10 q31 -99 185 -205 l55 -15 l10 0 q68 42 105 385 l0 10 q0 180 -70 180 l-15 0 q-118 -57 -295 -100 q-280 -74 -280 -125 l0 -15 Z" /><glyph glyph-name="" unicode="&#x4e54;" d="M1169 1542 q170 0 170 -115 q0 -54 -150 -160 q-125 -14 -125 -55 l5 -115 q10 0 10 -15 l15 -5 q213 50 315 50 q256 0 300 -80 q15 -28 15 -55 q0 -95 -100 -95 q-107 0 -230 55 l-120 5 q-175 -18 -175 -35 l0 -10 q5 -12 145 -95 q233 -205 335 -205 q28 -30 300 -100 q87 -69 90 -110 q0 -33 -90 -105 l-15 0 q-147 13 -370 175 l-175 155 q-43 0 -75 -85 q25 -36 25 -120 q15 0 15 -10 l50 5 l25 0 q144 0 255 -105 l20 -55 q-11 -181 -40 -275 q-112 -290 -160 -290 l-15 0 q-70 40 -70 80 q0 16 45 75 q23 0 50 285 l0 40 q0 95 -60 95 q-124 0 -475 -125 q-97 -20 -185 -25 l-15 -25 q20 -100 25 -200 l-5 -55 l5 -25 q-41 -110 -90 -110 q-48 0 -85 165 l10 50 q0 192 -40 300 l0 15 l20 15 q23 0 85 -50 l45 40 l40 0 l160 50 q160 49 160 60 l0 10 l-60 65 l-35 -65 l-20 -10 q-59 0 -135 175 q-8 80 -30 80 l-150 -160 q-201 -195 -295 -195 l-10 0 q-12 0 -15 20 q115 125 420 515 q10 0 10 25 l-20 10 q-151 -90 -275 -90 q-98 12 -235 90 l-30 30 q0 13 20 15 l65 -10 l15 0 q51 0 545 150 l70 100 l0 10 q-10 45 -35 45 q-325 23 -325 50 l0 5 q2 12 95 40 q20 17 145 70 q244 187 355 210 l60 10 ZM849 727 q0 -10 15 -10 q215 72 215 90 l0 5 q0 20 -105 45 q-35 0 -125 -120 l0 -10 ZM914 547 l40 -100 l15 0 q8 0 25 90 l25 45 q-7 20 -15 20 l-5 0 q-85 -26 -85 -55 ZM1144 162 q160 0 160 -140 l-45 -100 q20 -34 20 -60 l0 -20 q0 -84 -190 -115 q-28 4 -65 35 l-55 -55 l-15 0 q-65 0 -125 165 l-5 65 q0 82 105 125 q168 95 215 100 ZM949 -108 q0 -18 40 -60 l10 0 q11 2 45 105 q-4 15 -20 20 q-60 -30 -75 -65 Z" /><glyph glyph-name="" unicode="&#x4e5f;" d="M914 1404 q158 -33 158 -90 q10 0 14 -152 l-5 -18 q5 -15 19 -18 q8 0 138 134 l61 9 q62 0 69 -116 l0 -157 q-55 -310 -111 -426 q-41 -108 -120 -108 l-84 13 q-19 -5 -60 -179 l-83 -112 l0 -9 q0 -23 176 -23 l18 0 l181 14 l83 0 q42 0 245 40 l70 0 q69 5 69 27 l0 14 l-97 103 l0 4 q0 11 18 14 l60 -36 l65 0 q296 -36 296 -139 l5 -27 q0 -112 -102 -112 q-17 -9 -449 -49 q-276 -32 -485 -32 l-37 0 q-151 0 -306 153 q-102 155 -102 282 l19 202 l-23 9 l-47 -13 q-113 18 -161 67 q-56 57 -56 98 l19 18 l87 0 q204 31 204 139 q0 57 -93 162 l0 9 q10 13 75 18 q100 0 134 -63 l37 -99 l14 -4 q129 60 129 170 l0 45 q0 166 -32 166 q-56 33 -56 41 l0 13 q0 12 46 18 ZM1039 655 l24 -9 q74 133 74 269 l4 22 l-14 18 l-9 0 q-24 0 -60 -152 l-19 -148 ZM753 534 l0 -5 l4 -125 l-9 -45 q14 -121 37 -121 q23 0 23 107 q111 303 111 400 l0 9 q-9 17 -23 17 q-125 -73 -125 -116 l-18 -121 Z" /><glyph glyph-name="" unicode="&#x4e71;" d="M782 1280 q130 -25 130 -80 l-85 -120 q0 -42 -100 -260 l25 -10 q50 45 80 45 q110 -40 110 -60 q0 -28 -80 -85 l0 -10 l120 -65 q40 -50 40 -75 q-31 -715 -80 -715 l-40 -10 q-45 0 -75 125 l-5 5 l-5 0 l-60 -5 q-95 60 -110 60 l-10 0 q-17 0 -175 -120 q-96 -70 -110 -70 l-15 0 q-52 41 -70 80 l5 125 l-5 390 l30 20 q81 -25 110 -25 q100 17 100 90 l-25 35 l0 10 l80 55 l10 35 l-80 120 l0 10 q0 15 35 15 q40 14 40 25 l0 10 q0 10 -65 25 l-15 20 l0 75 l-20 20 l-215 -40 l-5 5 l0 10 l295 165 q75 51 75 80 l-35 25 l0 10 q0 16 200 60 ZM1095 1363 l5 0 q180 -64 180 -135 l15 -260 q-19 -440 -40 -495 l-15 -215 l5 -160 q36 -75 150 -75 q181 30 210 80 q35 36 35 100 l0 45 q0 83 -20 240 l15 10 l5 0 q135 -125 135 -140 l100 -310 q0 -46 -175 -150 l-130 -30 l-65 5 l-60 -10 l-45 0 q-166 0 -260 220 l-10 75 l0 60 q0 137 35 360 l-10 305 l10 195 q0 82 -85 275 l15 10 ZM612 975 q20 -89 30 -90 l10 0 q13 0 65 135 l0 5 q0 12 -20 15 q-85 -22 -85 -65 ZM267 830 l5 0 l55 -25 l55 25 l5 0 q15 -5 15 -30 l0 -60 q-9 -65 -55 -65 q-72 0 -110 100 l0 5 q13 50 30 50 ZM697 545 l0 -5 q1 -12 90 -60 l35 -40 l5 0 q10 0 10 15 q0 140 -35 140 l-5 0 q-57 0 -100 -50 ZM677 325 l50 -55 l20 -35 l-5 -35 l0 -5 q0 -85 75 -170 q30 0 30 160 l0 85 q0 31 -140 80 q-30 -7 -30 -25 ZM437 325 l-15 -20 q0 -93 -20 -285 l15 -20 l5 0 q23 0 120 85 l5 5 l0 5 q0 20 -45 30 l-5 5 l0 15 q0 15 70 15 q60 19 60 35 l0 15 l-20 20 l-95 -20 q-20 7 -20 15 l0 20 q0 20 95 50 l0 10 q0 10 -15 10 l-55 -5 l-80 15 Z" /><glyph glyph-name="" unicode="&#x4e86;" d="M1204 1395 l78 2 l49 4 q152 -12 228 -72 l34 -58 q-23 -250 -112 -258 q-313 -143 -349 -171 l-5 -5 l0 -5 l53 -89 q50 -90 122 -386 q34 -146 34 -273 q-33 -325 -214 -341 l-15 -2 q-145 -13 -383 190 l0 10 l14 5 q140 -61 175 -58 l146 27 q26 2 58 84 l34 153 q0 244 -112 504 q-16 33 -209 186 q0 47 127 59 q0 7 136 26 q257 155 257 252 l5 29 l0 23 q-18 59 -63 55 q-109 -14 -287 -180 q-48 -49 -165 -99 l-126 -16 q-96 -9 -228 74 l-15 16 l0 5 q0 19 155 70 l345 162 l233 77 Z" /><glyph glyph-name="" unicode="&#x4e8e;" d="M1279 1424 l17 0 q182 0 182 -102 q0 -75 -359 -123 q-314 12 -353 53 l-85 92 l0 16 q10 19 34 26 q114 -16 210 -16 l86 0 l268 54 ZM1130 1032 q149 0 149 -85 q25 -86 85 -86 q279 -40 279 -129 l0 -16 q-14 -80 -68 -80 q-268 0 -268 -33 q-17 -25 -17 -75 l-6 -209 l12 -188 l0 -16 q0 -305 -262 -407 q-144 -59 -399 -86 l-11 17 l0 5 q8 15 188 139 q198 197 227 327 q52 107 52 225 l-6 43 l6 102 q-10 59 -29 59 l-17 0 q-130 -107 -313 -107 l-57 -6 q-133 0 -256 81 q-46 41 -46 64 l17 16 l46 0 q178 0 427 75 q205 43 205 97 q-17 93 -17 198 l0 33 q28 42 79 42 Z" /><glyph glyph-name="" unicode="&#x4e91;" d="M1149 1338 q241 0 279 -188 q-26 -66 -57 -94 q-100 0 -211 69 l-315 163 l0 12 l5 7 l0 6 l88 -6 l211 31 ZM1354 780 q145 -26 145 -90 l0 -5 q0 -97 -160 -235 q0 -21 -120 -120 q-49 -105 -110 -115 q-105 -103 -105 -120 l15 -10 q128 25 285 85 q65 8 65 55 q25 31 60 45 q86 -23 175 -85 q28 0 50 -35 l0 -20 q0 -81 -65 -115 q-68 -95 -145 -120 q-217 -65 -285 -75 l-5 5 l0 5 q190 207 190 265 l0 15 q0 10 -15 10 l-170 -155 q-266 -144 -465 -160 l-5 0 q-91 0 -120 140 l0 40 q0 77 145 115 q125 86 340 345 l10 35 l0 5 q-104 -70 -155 -70 l-65 -5 q-95 4 -295 130 q-85 26 -85 35 l0 10 q0 10 15 10 l210 -5 q41 0 470 140 q27 0 90 35 l105 15 Z" /><glyph glyph-name="" unicode="&#x4eba;" d="M762 1250 q158 -20 210 -55 l30 -35 l0 -25 q0 -49 -110 -200 q-115 -120 -115 -135 q-106 -105 -130 -150 l5 -25 q176 55 215 55 q155 -24 565 -275 q29 -10 420 -55 q139 -86 165 -200 l0 -20 q0 -43 -220 -55 l-5 5 l-5 0 l-20 -5 l-5 5 l-5 -5 l-35 0 l-135 -10 l-5 0 q-115 0 -430 320 q-214 185 -330 185 l-170 40 l-5 5 l-20 0 q-10 0 -180 -195 q-166 -133 -240 -140 l-5 5 l0 10 q221 252 265 355 q105 130 195 305 q100 130 115 200 q-3 19 -65 45 l0 10 q16 25 50 40 Z" /><glyph glyph-name="" unicode="&#x4ee5;" d="M1522 1310 q95 0 265 -85 l25 -115 q10 0 10 -30 q-9 -23 -15 -175 q-38 -116 -255 -285 q-90 -76 -90 -90 l15 -20 l80 15 q220 0 280 -130 q11 0 15 -25 q-80 -63 -80 -80 l5 -20 q-69 -95 -100 -95 q-11 0 -60 75 q-29 21 -240 90 q-61 0 -120 120 l-15 80 l0 5 q0 123 200 395 q80 184 80 265 q0 70 -65 70 l-5 5 l0 10 q0 15 70 20 ZM1132 915 l15 0 l0 -5 q-48 -200 -120 -270 q-105 -56 -105 -135 q-16 -80 -55 -80 q-59 0 -120 140 q0 90 -45 90 l-10 25 q1 41 30 70 l25 -5 l30 0 q50 0 50 10 l25 -5 l15 0 q129 0 265 165 ZM267 820 q185 -51 185 -160 q10 0 10 -35 l0 -175 l5 -150 l15 -10 q74 11 205 220 l5 0 l10 -10 q0 -46 -135 -345 l-40 -120 q0 -59 -60 -70 l-10 0 q-190 78 -190 230 l0 35 q0 19 70 175 l30 220 q0 130 -105 175 l-5 5 l0 5 l10 10 Z" /><glyph glyph-name="" unicode="&#x4f20;" d="M1077 1557 q274 -113 275 -170 q0 -90 40 -90 q75 -21 75 -70 q0 -30 -110 -55 l-10 -30 l0 -95 q0 -7 20 -15 q230 135 275 135 q65 -22 100 -80 l35 -80 q0 -52 -140 -225 l25 -40 q0 -26 -105 -45 l0 -15 q2 -9 110 -70 q20 -36 20 -95 q0 -22 -35 -40 l-5 0 q-45 0 -105 155 q-44 40 -105 40 l-15 0 q-60 -3 -60 -60 q11 -13 85 -25 l15 -20 l0 -10 l-30 -35 l0 -10 q27 -50 140 -85 q135 -16 135 -45 q10 0 20 -45 q0 -35 -185 -75 l-5 -5 q-38 0 -55 -35 l25 -165 l0 -95 q0 -195 -145 -195 l-15 0 q-142 0 -245 190 l-5 25 l0 25 q0 117 110 155 l0 25 q-110 21 -110 40 l0 10 q0 13 105 35 q165 70 165 90 l0 10 q0 31 -105 125 q-14 0 -430 -225 l-105 -25 l-20 5 q-17 -5 -20 -20 l10 -195 q0 -220 -85 -220 q-52 -25 -75 -25 q-25 24 -25 75 l0 5 q0 87 60 345 q20 156 20 285 q-14 115 -40 115 q-13 0 -60 -80 q-114 -135 -185 -135 l-5 5 l0 20 q71 92 160 295 q30 39 130 315 l15 60 l-15 10 l-5 0 l-70 -15 l-5 5 l0 15 q83 67 105 120 l35 10 l5 0 l210 -65 l115 -10 q51 0 215 70 l10 20 q0 59 -120 210 l-30 80 l20 10 ZM817 1127 l5 -25 l0 -15 q-16 -78 -110 -220 l-110 -175 l0 -10 l45 -90 q15 -153 30 -215 l15 0 l30 30 l10 0 l10 -10 l-5 -25 l25 -15 q82 0 420 175 q40 45 50 70 q-5 20 -20 20 q-69 -10 -110 -65 q-93 0 -225 240 q-30 87 -30 135 q2 59 70 135 l5 0 l15 -15 l0 -155 l20 -20 l5 0 q48 47 245 100 l15 25 q0 115 -35 130 q-96 -25 -245 -25 q-85 35 -105 35 l-20 -15 ZM1427 972 l0 -5 q60 -5 105 -20 q20 0 40 60 q-5 16 -20 20 q-125 -42 -125 -55 ZM972 837 q2 -16 50 -40 l0 -5 l-10 -20 q43 -72 85 -100 q120 14 120 40 l-5 25 l0 35 q-10 20 -30 20 l-60 -20 q-85 10 -85 25 l0 5 q3 9 145 55 l35 30 l0 15 l-10 0 q-107 -45 -215 -45 l-20 -20 ZM1337 847 q0 -35 130 -35 q18 0 50 70 l-5 20 l-5 0 q-92 -9 -170 -55 ZM1327 762 q5 -16 20 -20 l35 10 l0 20 l-25 20 l-15 0 q-15 -5 -15 -30 ZM1262 167 q80 -76 80 -105 l0 -5 q-27 -80 -80 -80 q-10 0 -65 50 l-20 0 l-25 -25 l0 -15 q30 -95 150 -95 q100 0 100 70 l5 95 l-5 130 l-25 15 q-115 -20 -115 -35 Z" /><glyph glyph-name="" unicode="&#x5065;" d="M1218 1537 l11 0 q116 -34 116 -168 l0 -135 l22 -21 q58 16 99 16 l33 0 q149 0 199 -119 l0 -11 q0 -39 -99 -189 l-6 -33 l0 -5 q0 -21 28 -60 l0 -59 q-3 -13 -83 -43 l0 -11 l50 -43 l0 -11 q0 -84 -194 -152 q-22 -29 -22 -54 l22 -16 l127 16 q72 0 72 -48 q-76 -103 -177 -103 q-55 -17 -60 -38 q-11 -177 -33 -296 l16 -11 l249 11 q270 0 270 -49 q11 -28 11 -114 l0 -11 q0 -37 -72 -37 l-71 -22 q-459 34 -459 65 q-29 0 -182 103 q-42 0 -60 48 q-94 70 -94 91 l16 11 q148 -69 188 -69 l39 -6 l27 17 l-33 101 l11 98 l-5 5 l-6 0 l-127 -65 l-33 -5 l-182 43 l-22 -32 l11 -27 q-42 -32 -116 -156 q-31 -45 -121 -81 q0 -111 -166 -141 q-28 0 -33 81 l0 6 q0 98 49 296 q23 54 39 319 q-8 189 -44 189 q-13 0 -66 -86 q-126 -146 -204 -146 l-6 5 l0 22 q78 99 177 319 q31 41 138 324 l22 81 l-17 11 l-5 0 l-78 -16 l-5 5 l0 17 q93 72 116 129 l38 11 l6 0 q182 -40 182 -140 l0 -38 q-94 -184 -243 -417 l0 -10 l44 -87 q56 -209 56 -557 l0 -102 l16 -16 l6 0 q87 77 132 351 l0 37 q0 184 -94 411 l11 11 l6 0 l83 -102 q121 -78 121 -201 l0 -5 q0 -49 -28 -195 q9 -21 17 -21 l11 0 q111 0 337 129 l11 22 l0 11 q0 27 -28 38 l-39 0 q-97 0 -231 86 l0 17 l11 0 l94 -17 l182 98 l11 21 q0 44 -28 60 q-165 -103 -237 -103 l-11 0 q-89 14 -89 49 q18 16 144 54 q163 86 199 119 l11 27 l-33 27 q-122 -54 -177 -54 q-127 28 -127 54 q0 26 121 38 q221 84 221 124 l-22 16 q-63 -32 -215 -43 q-77 11 -77 27 l0 11 q1 7 138 54 l160 92 l-22 330 q15 43 55 43 ZM1367 1077 l33 -59 l0 -33 q-22 -29 -22 -48 q0 -22 61 -44 q38 0 88 222 q-11 25 -22 27 l-6 0 q-132 -22 -132 -65 ZM1394 753 l-16 -27 q0 -60 27 -60 q111 26 111 38 l0 6 q0 12 -122 43 ZM837 88 l11 0 l44 -27 l-5 -6 l-6 0 q-44 14 -44 27 l0 6 Z" /><glyph glyph-name="" unicode="&#x5148;" d="M978 1483 l6 0 q68 -30 68 -135 q23 -181 51 -181 l6 0 q177 110 266 114 l17 0 q23 0 135 -52 l6 -5 l0 -16 q-111 -112 -272 -150 q-130 -44 -158 -67 l-11 -125 l22 -10 q232 104 391 104 q102 -14 102 -57 q-91 -146 -170 -146 q-169 -22 -334 -119 q-11 0 -40 -254 l-11 -186 q0 -145 57 -145 q72 -31 203 -31 l114 0 l79 5 l28 -5 q125 6 125 46 l-23 337 l0 21 l11 10 l6 0 q8 0 102 -160 q55 -26 90 -125 q57 -103 57 -165 q0 -99 -272 -99 q-210 -26 -322 -26 l-51 0 q-57 0 -244 114 q-62 74 -62 181 l28 436 l-28 10 q-27 -20 -51 -104 q-130 -375 -294 -621 q-111 -104 -159 -104 l-17 16 q230 365 357 725 q-6 21 -23 21 l-266 -88 l-141 -11 q-204 27 -204 140 q19 36 51 36 l17 -20 l-6 -26 q12 -31 46 -31 l67 0 q70 0 312 103 q73 14 73 31 l0 6 l-11 15 l0 10 l68 26 q124 87 124 213 q-7 26 -39 26 l-74 0 l-68 15 q-27 0 -73 -166 q-29 -57 -62 -57 q-143 0 -193 120 l0 5 q13 43 96 150 q40 66 40 109 l0 15 q0 86 -125 182 l6 5 q323 -130 323 -202 l-12 -93 l23 -16 q175 45 175 83 l12 161 q-19 108 -57 108 l-62 -10 l-11 16 l0 15 q0 43 186 78 Z" /><glyph glyph-name="" unicode="&#x5149;" d="M952 1479 q102 0 102 -84 q0 -168 15 -168 l5 0 q48 73 118 73 l10 0 q80 0 122 -73 q40 0 92 -151 l0 -16 q-60 -165 -189 -241 l-61 -11 q-35 0 -97 33 q-35 0 -35 -106 q6 -28 15 -28 q219 118 372 118 q0 6 30 11 q188 0 290 -123 l0 -6 q-23 -95 -66 -95 q-16 0 -66 -33 l-71 -6 q-88 16 -306 22 q-34 0 -46 -112 q-44 -98 -71 -285 l-5 -101 q23 -206 158 -206 l5 0 q351 24 351 78 l0 17 q0 57 -46 201 l6 0 l218 -213 l31 -50 q0 -170 -107 -190 q-156 -44 -234 -44 l-61 -6 q-252 0 -326 106 q-96 99 -132 235 l5 17 l-11 156 q0 65 62 325 l-21 16 q-77 -29 -81 -50 l0 -39 q-69 -325 -245 -554 q-171 -218 -305 -218 l-5 6 l0 17 q108 89 265 346 q152 322 152 392 q-5 22 -25 22 q-97 -25 -275 -123 q-91 -50 -158 -50 q-61 40 -61 106 q0 84 31 84 l76 -11 l36 0 q94 0 376 139 q117 32 117 56 l-5 51 l10 212 q-10 23 -10 62 l10 84 l0 89 q0 39 -25 56 l-15 -5 q-36 0 -41 139 q52 129 122 129 ZM1054 1099 l5 -23 l-10 -78 l20 -17 q60 0 128 134 l0 28 q0 44 -31 62 q-97 -48 -112 -106 ZM616 1194 q88 -107 117 -202 l5 -5 l16 0 l61 67 l5 -6 l0 -11 q-31 -118 -31 -212 l31 -90 l0 -22 q-19 -45 -66 -45 q-112 0 -153 123 l0 34 l20 95 l0 95 l-15 162 l0 6 l10 11 Z" /><glyph glyph-name="" unicode="&#x514d;" d="M1280 1390 q79 -17 76 -55 q-10 -116 -218 -280 q-231 -151 -287 -210 q-79 -108 -82 -150 l9 -10 l5 0 l242 215 l195 120 q66 35 118 35 q117 -39 111 -110 q-5 -62 -180 -240 l0 -10 l9 -10 l51 20 l5 0 q50 -7 46 -50 q-3 -37 -175 -125 l-32 -30 l6 -45 l-1 -15 q-7 -79 -85 -490 l-1 -10 q38 -65 180 -65 l20 0 l4 -5 l6 5 l15 0 l-1 -5 l61 5 l95 0 l75 5 l35 -5 q125 0 128 35 l15 70 l-11 235 l6 5 l10 0 l48 -85 q139 -97 178 -270 l-1 -15 q-7 -85 -267 -85 l-317 -20 l-105 0 q-171 37 -246 115 q-50 57 -45 115 l2 30 l79 410 l-19 15 q-36 -6 -51 -135 q-32 0 -201 -320 l-107 -140 q-140 -165 -243 -165 l-9 15 l1 5 q122 135 229 295 q97 129 221 380 q2 32 -67 45 l-23 20 l0 5 l22 15 l49 -5 q78 0 101 130 q36 76 41 135 q2 33 -17 45 q-169 -112 -232 -215 l-13 -30 l12 -100 l-6 -75 q-30 -40 -73 -40 q-104 0 -145 190 l1 5 q7 90 251 385 q37 52 116 130 l51 80 l-4 5 l-5 0 q-84 -27 -164 -165 q-65 -80 -121 -80 q-58 0 -93 95 l1 5 q5 60 130 185 q51 69 55 120 q2 29 -71 110 l1 15 q85 -12 224 -135 q-1 -10 19 -10 q273 160 343 160 l20 0 ZM1107 675 l-4 -45 l5 0 q101 112 169 235 l15 55 l-19 15 q-130 -64 -133 -100 l-33 -160 Z" /><glyph glyph-name="" unicode="&#x516c;" d="M911 1389 q72 0 172 -139 l5 -22 q-36 -83 -104 -171 q-356 -445 -494 -445 l-16 0 q-41 0 -208 69 l0 11 q5 14 73 43 q146 107 239 268 q63 91 63 113 l0 5 q-80 75 -89 102 l0 11 q0 12 73 21 q37 74 146 113 l140 21 ZM1203 1276 q201 -38 333 -139 q196 -153 260 -273 l0 -6 l-5 -27 q47 -88 47 -118 l0 -21 q0 -30 -26 -43 l-16 0 q-38 48 -104 48 q-140 38 -140 81 q-87 81 -120 193 q-51 78 -78 155 l-167 118 l-5 22 l21 10 ZM948 949 q183 -65 245 -193 l10 -37 q0 -31 -104 -156 q-129 -216 -250 -348 q-73 -60 -99 -107 q5 -22 21 -22 q107 78 427 193 l10 27 q0 40 -68 198 l0 6 l21 0 q374 -228 422 -274 q68 -122 68 -161 l0 -16 q0 -61 -32 -80 l-52 0 l-20 -6 q-59 0 -297 140 l-52 11 l-63 -11 l-62 5 l-136 -64 l-171 -81 q-13 0 -125 -128 l-68 -27 q-55 0 -99 214 l0 11 q0 51 136 145 q40 0 98 102 l94 161 q0 11 94 150 q0 26 73 166 l15 70 l0 5 q0 45 -52 86 l0 11 q0 10 16 10 Z" /><glyph glyph-name="" unicode="&#x520e;" d="M1420 1537 q114 -16 255 -107 l5 -5 l0 -56 l-5 -23 q13 -34 21 -264 l10 -56 l-16 -174 l6 -6 l0 -5 l-6 -6 l0 -11 l6 0 l-6 -124 l26 -612 l0 -39 q0 -172 -31 -347 q0 -37 -56 -79 l-15 0 q-31 16 -51 90 l5 73 l-5 291 l5 320 q-19 156 -31 578 q-35 239 -35 326 q-27 107 -72 107 q-177 74 -189 90 l0 5 q0 13 174 34 l5 0 ZM645 1481 q53 0 122 -270 l0 -22 q-12 -107 -26 -107 l0 -17 l11 -11 l10 0 q58 45 76 45 l41 -22 l10 0 l51 5 l189 -39 q51 -71 72 -191 l76 -34 q57 46 97 152 l10 0 q31 0 41 -236 l0 -23 q-7 -146 -36 -146 l-10 0 q-55 0 -132 124 l-6 17 l-25 0 l0 -45 q0 -262 -209 -629 q-112 -168 -169 -168 q-15 -15 -86 -39 q-92 0 -128 73 l-15 17 l-26 0 q-84 -56 -163 -73 l-5 0 l-15 17 q137 144 137 246 l0 62 q0 62 -15 62 l-20 0 q-20 -99 -184 -124 q-26 7 -26 39 l0 68 q0 45 67 196 q0 11 -16 11 q-84 -33 -107 -33 q-39 0 -66 106 q0 21 41 73 q27 124 41 124 l15 -11 l-5 -40 l0 -78 l-5 -6 l20 -28 q48 21 143 169 q99 187 117 258 q33 26 87 225 q18 29 31 89 q-82 163 -82 180 q0 34 72 34 ZM726 953 l-5 -6 l0 -5 q77 -77 77 -208 q-21 -326 -82 -534 q-41 -88 -41 -123 q0 -32 56 -39 q94 0 230 264 q107 306 107 477 l-15 50 l5 23 q0 67 -72 67 l-40 11 l-57 -5 l-30 0 q-39 0 -133 28 ZM629 745 l5 -67 l-51 -253 l-10 -67 l0 -118 l5 -40 l21 0 q23 25 97 321 l15 235 q-19 101 -36 101 l-10 0 q-12 0 -36 -112 ZM400 341 l15 -11 q39 25 112 241 l-10 23 q-66 0 -117 -253 Z" /><glyph glyph-name="" unicode="&#x521d;" d="M623 1479 q185 -46 225 -90 q48 -62 48 -90 q0 -23 -48 -56 l-26 0 l-120 -11 l-21 5 l-31 -5 l-16 0 l-11 11 l0 6 q48 69 48 95 q0 20 -63 118 l15 17 ZM1644 1243 q188 -23 188 -135 l0 -28 q0 -146 -68 -433 q-68 -335 -152 -562 q-57 -101 -136 -101 q-53 0 -120 253 q-27 95 -42 95 l-5 0 q-99 -151 -246 -151 l-11 22 q194 407 194 517 q16 28 16 79 l0 17 q0 128 -89 275 l0 6 l5 5 l0 6 l63 -6 q76 0 366 135 l37 6 ZM822 1136 q89 -13 89 -90 l0 -22 q0 -19 -104 -186 q0 -15 -79 -140 l-31 -68 q10 -33 42 -33 q83 36 167 185 l-16 28 l0 6 q9 22 37 22 l5 0 q56 0 89 -62 l0 -16 q0 -53 -131 -124 q0 -10 -62 -45 l0 -17 q149 -62 188 -174 l0 -6 q-11 -112 -68 -112 l-5 0 q-12 0 -168 185 q-26 0 -26 -123 l-26 -349 q21 -94 26 -242 q-18 -67 -58 -67 q-41 0 -94 152 l-10 73 q33 71 73 382 l0 6 l-5 56 l26 174 q0 28 -31 28 q-125 -264 -309 -483 q-150 -152 -220 -152 l-5 6 l0 5 q256 269 424 613 l42 107 l-6 0 l-109 -51 q-173 43 -173 101 l5 6 l11 0 l57 -11 q71 9 340 348 l89 85 l26 5 ZM1440 939 l21 -50 q0 -109 -126 -495 q0 -28 68 -56 q32 -39 58 -39 q61 74 146 416 l47 292 l-21 28 q-193 -58 -193 -96 Z" /><glyph glyph-name="" unicode="&#x5229;" d="M1428 1404 l260 -70 q50 -41 50 -190 q15 -68 15 -230 q0 -262 -45 -570 l10 -145 l-10 -65 l5 -95 l0 -40 q0 -123 -90 -165 q-15 -10 -60 -10 l0 -5 q-80 0 -160 60 q-34 6 -100 110 q-32 15 -55 45 l10 10 l5 0 q118 -35 195 -35 q86 0 100 150 q20 0 25 320 l5 0 l-5 15 l5 225 l-15 200 l0 5 l5 65 q-32 335 -85 335 q0 9 -80 60 l0 5 l15 15 ZM863 1413 l40 -4 q159 -18 159 -133 q0 -53 -125 -54 l-6 -4 l0 -11 q69 -84 69 -117 l0 -16 l-6 -56 q0 -17 80 -51 q34 -31 34 -93 q0 -96 -80 -257 l-68 -138 q-40 -45 -40 -100 l0 -219 q0 -138 -52 -302 q-13 -34 -22 -33 l-18 2 q-56 40 -97 213 q0 11 -68 76 q-69 101 -69 169 l0 11 q0 55 126 309 l23 65 l-17 23 q-12 1 -269 -205 q-93 -62 -159 -55 l-52 1 q-148 87 -148 163 l6 4 l5 -1 l46 -20 q257 97 633 330 q23 -2 29 190 l-17 59 l0 6 l11 56 l-17 12 q-34 4 -257 -96 l-17 -4 l-5 6 l0 5 l256 238 q71 34 92 31 ZM1358 969 l5 0 q10 0 10 -15 l-5 -180 q75 -208 75 -245 l0 -15 q0 -50 -100 -50 q-70 25 -70 90 q-20 63 -20 115 l10 70 q0 117 -110 180 q-65 15 -65 30 l0 5 l10 10 q94 0 205 -60 l10 0 q11 2 45 65 Z" /><glyph glyph-name="" unicode="&#x52bf;" d="M721 1537 q120 -9 120 -95 l10 -25 l50 5 l40 0 l15 -15 l0 -10 q-17 -34 -110 -60 l-10 -30 l0 -50 l-5 -5 q5 -17 20 -20 q44 8 155 130 l25 5 l55 -5 l5 5 l5 0 q31 0 70 -45 l0 -15 q-274 -291 -305 -305 l0 -10 l90 -30 q23 -60 40 -60 q65 22 220 175 q20 34 20 60 l0 75 l-5 80 q3 35 35 35 q36 0 80 -80 q0 -39 30 -50 l75 10 l5 0 q70 0 100 -125 l-5 -25 l0 -45 l-40 -105 q-55 -223 -55 -305 q0 -35 110 -65 q120 43 120 140 q6 0 10 40 l-5 150 l0 20 q3 30 15 30 l5 0 q13 -5 60 -150 q75 -120 75 -240 l0 -15 q0 -41 -100 -95 q-148 -40 -175 -40 q-113 0 -140 55 q-70 82 -70 250 q0 45 60 245 l0 15 l-15 5 q-77 -32 -120 -135 l-20 -65 q55 -65 55 -145 q10 0 10 -50 q-42 -35 -65 -35 q-30 11 -50 35 q-27 0 -50 -85 q-50 -67 -50 -85 l15 -5 q42 10 165 15 q122 0 225 -100 l15 -20 l0 -15 l-50 -150 q0 -33 -80 -254 q-82 -165 -260 -220 l-60 -20 q-107 68 -145 145 l0 10 l10 15 l90 -10 l35 0 q62 0 95 80 q25 0 90 219 l15 160 q-29 55 -70 55 q-150 -16 -150 -55 q-19 -208 -180 -489 q-102 -105 -260 -140 l-20 0 q-130 20 -130 40 l0 5 q0 9 90 35 q150 72 290 364 l50 135 q-8 20 -15 20 q-79 -35 -140 -35 l-5 0 q-145 0 -145 25 q105 45 110 55 l5 15 l-5 5 l15 70 l-5 70 l5 55 l-15 5 l-200 -120 l-10 0 q-110 17 -110 50 l0 15 q20 25 245 210 l0 20 q0 19 -125 40 l-5 5 l0 10 q0 13 110 45 q155 85 205 100 q20 21 20 40 l0 5 q0 28 -35 40 q-67 -12 -210 -115 l-20 -5 q-30 0 -40 30 q0 76 105 90 q99 43 275 235 l0 10 q0 10 -15 10 q-315 -170 -400 -170 l-55 -5 q-64 16 -75 45 l20 20 l40 -10 q67 0 265 80 l0 15 q0 8 -85 40 l0 10 l10 15 l25 -5 l10 0 q75 5 75 30 l0 15 l-20 15 q-33 -15 -80 -15 l-135 10 l-10 0 l-15 15 l0 5 q0 10 180 45 q100 12 100 45 q0 100 -55 100 q-25 0 -25 15 l0 5 q16 23 65 35 ZM956 827 q0 -19 -40 -75 q0 -17 90 -70 l0 -15 l-75 -45 l0 -5 q0 -10 90 -75 q22 0 55 95 l0 5 q0 15 -20 45 q0 9 80 80 l-5 5 l0 5 q-30 -28 -55 -35 q-41 0 -105 85 l-15 0 ZM421 417 q0 -10 15 -10 q169 66 270 165 l5 5 l0 25 l-15 15 l-270 -185 l-5 -5 l0 -10 ZM866 587 q-20 -23 -20 -35 l5 -235 l25 -15 q26 0 40 25 l0 75 q-13 185 -50 185 Z" /><glyph glyph-name="" unicode="&#x5343;" d="M1234 1386 q48 0 134 -51 q45 -12 70 -45 l0 -19 q-110 -123 -250 -192 q-93 -54 -112 -74 l0 -13 q82 -79 125 -79 l24 -64 l23 -4 q192 68 274 68 l138 -96 q33 -31 33 -50 q-34 -59 -116 -83 l-23 5 q-334 -9 -334 -60 l0 -55 q0 -38 -10 -60 l6 -36 q-19 -404 -42 -587 q-48 -83 -79 -83 q-36 0 -102 101 l-14 64 l5 23 q-11 88 -24 115 l5 187 l0 15 q0 30 11 55 l9 17 q-6 24 -6 47 l0 55 q0 65 -46 97 l-9 0 q-22 0 -98 -70 q-58 -31 -227 -55 l-14 -4 q-162 27 -162 68 q-24 21 -56 78 q-46 18 -46 37 l19 19 l-24 46 l5 4 l13 0 q70 -74 98 -74 l79 0 q164 20 269 65 q75 0 138 55 q-51 133 -106 133 l-23 0 l-56 -14 q-126 0 -264 37 l0 14 q0 6 125 45 q140 68 144 92 l-42 74 l5 4 l9 0 q50 -45 70 -45 q30 0 125 105 l0 9 l-75 46 l-18 18 l0 9 l9 10 l51 0 l70 36 q112 60 292 60 Z" /><glyph glyph-name="" unicode="&#x534e;" d="M1190 1537 l15 0 q31 0 60 -40 l0 -70 q-25 -88 -25 -135 l20 -15 l165 40 l25 0 q69 0 85 -60 l0 -20 q0 -24 -25 -40 l-280 15 q-20 -13 -70 -175 l-50 -65 l0 -10 l10 -10 q137 65 160 65 l20 5 q40 0 45 -65 q-4 -19 -40 -35 l-5 -5 l0 -10 l15 -15 q22 10 65 10 l10 0 q85 -20 85 -40 l0 -10 q0 -31 -145 -145 q-65 -108 -65 -165 l15 -10 q94 40 240 40 l15 0 q116 0 165 -80 q0 -45 -105 -60 l-90 0 q-51 2 -110 50 q-235 -49 -235 -65 l0 -10 q74 -58 335 -120 q120 0 120 -105 q0 -70 -50 -70 l-45 0 q-34 0 -270 65 l-55 5 l-5 0 q-55 0 -55 -100 l0 -250 q-43 -171 -105 -210 q-32 0 -65 -85 l-5 -5 l-10 0 q-10 0 -10 15 l40 475 l0 60 q-11 30 -40 30 q-98 0 -275 -135 q-52 -30 -110 -30 q-180 6 -180 30 l0 10 q15 15 340 125 q260 106 260 165 l5 45 l0 60 q0 12 -20 15 l-300 -105 q-144 -92 -210 -120 l-20 -5 q-45 16 -45 55 l0 10 q18 75 75 75 q141 25 220 105 q105 57 105 80 l0 5 q-50 50 -65 90 l-15 10 l-25 -5 l-15 0 q-42 0 -50 45 l0 15 q2 10 25 20 l40 -10 q11 0 15 25 q-55 132 -100 175 l0 5 l10 10 l45 -10 l40 10 q12 0 75 -55 l20 -5 l5 0 l50 15 l0 20 l-40 0 l-10 10 l0 5 l65 35 l25 35 q0 15 -70 60 q-13 30 -35 30 q-35 -10 -135 -15 q-150 87 -150 165 l5 5 l5 0 q60 -50 110 -50 q42 0 145 30 q15 0 25 165 l-20 50 l0 10 l10 10 q101 -44 145 -145 l0 -5 l-5 -45 l10 -80 l0 -30 l10 -10 l15 0 q61 81 160 150 q66 71 90 195 l5 40 q-8 20 -15 20 l-5 0 q-32 -9 -65 -120 l-20 0 l0 5 q15 76 75 150 l20 15 ZM1000 1047 l5 -5 l10 0 q17 1 70 125 l-5 5 l-15 0 q-65 -35 -65 -125 ZM1125 837 l20 -25 q43 0 95 65 l5 5 l0 5 q-4 15 -20 20 q-100 -20 -100 -70 ZM835 762 q6 -55 35 -55 q150 40 150 90 l0 10 l-20 20 l-5 0 l-155 -50 l-5 -5 l0 -10 ZM865 607 l0 -5 q12 -25 40 -25 q38 8 80 50 q-10 22 -20 25 l-40 0 q-60 0 -60 -45 ZM1130 547 l0 -15 l25 0 l5 25 l-5 5 l-5 0 l-20 -15 ZM1135 332 l0 -25 l15 -15 q50 10 50 35 q-18 35 -45 35 q-20 -5 -20 -30 Z" /><glyph glyph-name="" unicode="&#x5374;" d="M833 1537 l20 -30 q0 -33 -25 -110 l0 -5 l10 -65 l-5 -60 l25 -105 q0 -13 75 -25 l55 5 q41 0 95 -65 q80 -10 80 -35 l-10 -50 l5 -25 l-205 -85 q-18 -17 -30 -115 q-19 -30 -30 -30 l0 -5 q0 -9 80 -55 l15 -45 q0 -89 -205 -305 l0 -5 q3 -15 20 -20 l75 15 q128 0 175 -115 l10 -40 q-19 -80 -55 -80 l-10 0 q-42 0 -125 65 l-10 0 q-24 0 -90 -80 q-202 -139 -340 -139 q-70 37 -70 139 q0 44 120 130 q148 142 205 245 l0 20 q-16 0 -60 -35 l-90 -10 q-107 28 -235 115 l-5 5 l0 5 q0 28 150 35 q53 0 400 130 l10 10 l0 15 l-50 10 q-23 0 -185 -60 l-10 0 l-5 5 l0 15 l125 125 q0 24 -115 55 q-200 122 -200 250 l0 5 l10 10 l10 0 q101 -145 175 -145 q145 25 145 65 l-20 120 l5 115 q0 170 -60 170 l-5 5 l0 15 q33 40 60 40 l20 0 l75 5 ZM1648 1037 q87 -30 125 -30 l85 -45 q25 -42 25 -75 q-12 -105 -115 -310 q-38 -82 -175 -200 l-55 -20 l-25 0 q-47 0 -110 65 l-15 0 l-5 -15 l5 -5 l0 -15 q50 -395 50 -524 l0 -90 q-10 -75 -65 -75 q-103 0 -165 185 q1 35 10 35 l-5 224 l0 185 q0 128 -35 305 q-19 14 -140 45 l-10 15 l0 15 q0 28 65 30 l25 15 l-5 35 l0 5 l15 15 l5 0 q123 0 250 90 q80 37 225 135 l40 5 ZM1318 707 q60 -89 60 -185 l25 -20 q128 0 170 225 q13 33 25 105 l-15 20 q-254 -108 -265 -130 l0 -15 ZM658 162 l20 -10 q120 27 120 60 l-50 40 q-36 0 -90 -90 Z" /><glyph glyph-name="" unicode="&#x5377;" d="M924 1537 q65 -15 65 -55 q-25 -83 -25 -175 l20 -10 l130 135 l20 10 q170 0 225 -90 l0 -10 q-6 -50 -105 -150 l0 -10 q6 -14 90 -65 l5 -25 l0 -5 q0 -62 -125 -105 l0 -20 l10 0 l0 -5 l35 5 l45 0 q125 0 125 -65 l0 -5 q0 -59 -150 -70 q0 -8 -130 -15 q-223 -79 -295 -210 l-40 -105 q0 -19 -45 -110 q5 -25 20 -25 q63 0 305 115 l70 0 q24 0 105 -60 l10 0 q265 69 265 85 l0 10 q0 10 -220 65 q-245 85 -245 100 l15 15 l15 0 l155 -35 l480 -70 q170 -55 170 -100 q13 0 20 -40 q-4 -40 -35 -40 l-105 25 l-50 -5 l-35 0 l-50 10 l-65 -15 l-50 5 l-235 -45 q-29 -2 -65 -75 q-9 0 -75 -75 q-22 -9 -40 -35 l0 -15 q3 -15 40 -15 l80 0 q39 0 55 -30 l0 -20 l-125 -85 q-35 -57 -125 -115 q-84 0 -115 40 l-10 0 q-14 0 -20 -105 q0 -23 35 -40 l320 85 q185 -15 185 -90 l0 -5 q-13 -25 -40 -25 l-25 0 q-53 0 -355 -70 l-65 -5 q-150 50 -150 220 l0 45 q20 148 20 295 l0 10 q-13 29 -80 50 q-25 0 -65 -120 q-140 -236 -285 -285 l-95 -45 q-110 0 -110 95 l-15 95 l15 10 q11 -3 45 -85 l5 -5 l15 0 q63 80 110 90 q122 135 240 360 q35 65 35 80 l0 10 l-5 0 q-93 -59 -175 -70 q-137 0 -170 95 l-5 30 l0 15 q0 16 135 40 q26 20 175 40 q140 78 185 185 l0 10 l-15 15 l-35 0 q-79 0 -120 55 l10 10 l50 0 l0 25 q-104 32 -180 195 l-20 85 l15 10 l5 0 q84 -135 120 -135 q208 75 215 105 l0 5 q0 26 -15 30 l-5 0 l-15 -10 l-10 0 l-15 15 l10 100 q0 49 -25 140 q0 26 155 30 ZM949 1122 l0 -10 l15 0 q143 181 165 245 l-5 0 q-29 0 -135 -130 q-25 -45 -40 -105 ZM764 972 l5 0 q55 0 55 45 l-5 15 l-10 0 q-45 -43 -45 -60 ZM939 927 l0 -15 q0 -10 15 -10 q58 36 75 60 l0 25 l-15 0 q-75 -19 -75 -60 ZM939 812 l0 -15 l5 0 q67 21 165 95 l0 5 l-15 15 q-104 -40 -155 -100 ZM359 547 q0 -10 15 -10 q61 0 240 75 l0 5 l-5 5 l0 5 q-161 -30 -250 -65 l0 -15 ZM964 232 l20 -15 l10 0 l25 25 l-20 25 q-35 -10 -35 -35 Z" /><glyph glyph-name="" unicode="&#x539a;" d="M1363 1465 q139 0 209 -58 q31 -14 31 -35 q0 -24 -61 -34 q-16 -11 -16 -63 q-9 -24 -36 -24 l-102 19 l-5 -5 l-5 0 l-51 10 l-31 -5 l-56 5 q-149 -18 -441 -88 q-31 -29 -153 -29 l-10 0 q-71 14 -190 78 l0 5 q0 16 113 29 q386 178 804 195 ZM1383 1207 l10 0 q151 -15 164 -73 q0 -59 -123 -253 l-5 -44 q0 -25 41 -73 l0 -20 q0 -26 -159 -68 q-21 -20 -56 -20 l-5 0 l-72 20 l-82 -39 q-219 0 -379 63 l0 10 q0 10 15 10 l195 -20 l16 24 q-144 148 -144 181 q0 26 -92 73 l-15 14 q0 13 20 15 q28 0 328 -102 l256 63 l25 98 l-15 9 l-5 0 q-203 -43 -312 -43 q-82 4 -82 19 l0 9 q0 8 333 107 q62 40 143 40 ZM487 1100 q8 0 61 -142 q52 -86 92 -210 q36 -43 103 -238 l0 -107 l-46 -219 l-5 -15 l5 -29 q-26 -135 -123 -379 l-67 -50 l-10 0 q-20 0 -30 156 q0 88 56 351 q30 191 30 345 q0 239 -76 522 l0 10 l5 5 l5 0 ZM1106 812 q8 0 26 -39 l16 -9 q102 27 102 73 l-10 14 q-134 -6 -134 -34 l0 -5 ZM1367 632 q144 -24 144 -83 l5 -20 q-20 -86 -220 -282 q-46 -23 -46 -39 q17 -34 67 -34 l76 0 q134 -26 159 -68 q0 -37 -51 -54 l-128 10 l-21 -20 l5 -24 l0 -38 l6 -78 q-57 -156 -154 -156 l-15 0 q-94 0 -251 224 l-6 24 q0 32 129 146 l5 14 q-26 37 -26 64 l0 24 q2 14 138 97 q128 115 128 161 l0 5 l-15 15 l-6 0 q-22 0 -230 -127 l-61 -10 q-91 0 -138 93 q0 93 307 137 q131 19 199 19 ZM1076 -11 l0 -9 q0 -20 76 -40 l11 0 l15 15 l0 5 q0 67 -41 67 q-57 -24 -61 -38 Z" /><glyph glyph-name="" unicode="&#x53bb;" d="M1397 815 l107 16 l76 0 q175 -47 180 -128 q-71 -55 -378 -113 l-40 -9 l-131 174 q79 25 186 60 ZM1047 319 q-94 -94 -184 -172 l1 -10 l11 -9 l325 98 q81 30 89 54 q-2 45 -57 152 l16 9 q158 -80 373 -215 q80 -83 84 -161 l1 -15 q3 -54 -51 -54 q-114 0 -254 93 q-43 25 -115 44 l-60 -5 l-70 5 q-250 -83 -417 -195 l-59 -10 q-49 0 -84 166 l-6 4 q3 43 124 108 q45 0 120 100 l213 13 ZM772 227 q15 19 30 42 l131 177 l34 72 l-16 11 l-6 0 q-298 -89 -384 -89 q-178 15 -203 54 q-29 0 -58 74 l-1 20 q-2 30 56 73 l5 0 l17 -15 l-4 -25 l1 -14 q15 -29 61 -29 l27 0 q156 0 492 103 q39 76 34 165 q-1 22 -229 40 q-77 15 -203 59 q-60 24 -61 34 l16 5 q92 -35 218 -35 l65 0 q184 14 192 60 l-6 4 l-11 221 l6 93 l-3 59 q-1 8 -28 14 q-5 -14 -32 -14 l-22 19 q28 132 101 132 l27 0 q40 0 67 -44 q-13 -68 -9 -137 l2 -39 l-5 -5 l5 -5 q-12 -78 -12 -176 q5 -98 37 -98 q242 151 382 151 l32 0 l23 -33 q1 -18 -108 -94 q-28 -64 -136 -102 q-196 -63 -196 -69 l-10 -9 q7 -143 45 -143 q31 0 229 62 l131 -174 l-233 -54 q-30 0 -45 -74 l-138 -156 q-48 -51 -94 -98 l-213 -13 Z" /><glyph glyph-name="" unicode="&#x53d1;" d="M970 1438 q-31 -35 -29 -81 q-7 -55 -7 -115 q-26 -117 -57 -233 q-96 -40 -187 -100 q-51 -29 -53 14 q31 122 43 257 q-19 12 -15.5 -5 q3.5 -17 -17.5 -24 q-99 -146 -185 -290 q-43 -38 -77 -72 q15 -26 24 -62 q0 -43 36 -62.5 q36 -19.5 53 -45.5 q62 -12 127 29 q53 36 108 43 q-5 -19 -24 -36 q-19 -17 5 -27 q-24 -67 -67 -134 q-48 -79 -103 -160 q-55 -125 -171 -187 q-86 -63 -91 -166 q8 -79 46 -112 q22 -19 53 -15 q155 106 244 278 q5 22 18 6.5 q13 -15.5 20 -6.5 q39 -19 63 -50 q38 -58 117 -53 q84 -7 190 36 q33 -7 47 24 q60 51 118 79 q136 -98 275 -179 l175 -120 l41 -46 q36 -12 74 15 q-7 9 7.5 15 q14.5 6 -7.5 16 q-21 103 -115 182 q-98 86 -182 153 q-74 29 -146 75 q110 127 139 299 q24 38 -5 70 q-7 57 -61 75 q-54 18 -97 42 q-72 31 -91 -29 q-17 -26 -53 -44 q-36 -18 -14 -37 q-82 -53 -161 -108 q-71 -48 -146 -91 q5 38 31 89 q55 107 91 232 q34 34 89 48 q29 22 53 17 q55 24 98 57 q53 17 103 46 q19 24 36 45 q60 31 17 72 q41 5 24 19 q-36 36 -86 44 q-8 19 -48 35 q-63 10 -125 44 q-38 26 -10 69 q20 36 0 77 q-62 50 -134 88 ZM1438 1321 q-17 -10 -40 -8.5 q-23 1.5 -8 -25.5 q-24 -9 0 -18.5 q24 -9.5 38 -19.5 q93 -86 196 -163 q53 -29 118 -5 q9 46 14 87 q10 52 -45 72 q-72 33 -151 55 q-22 4 -60 9 q-27 10 -62 17 ZM1045 1139 q59 12 23 -31 q-45 -22 -26 24 l3 7 ZM1277 578 q24 5 17 -24 q-7 -29 -19 -41 q-53 -95 -137 -167 q-91 31 -192 50 q17 24 65 50 q127 58 249 118 l17 14 ZM831 346 q17 0 39 -5 q100 -29 189 -77 q-53 -65 -127 -101 q-62 -35 -96 -4 q-89 26 -127 105 q43 62 122 82 ZM385 123 q22 7 7.5 -19.5 q-14.5 -26.5 -28.5 -38.5 q-12 31 21 58 Z" /><glyph glyph-name="" unicode="&#x53e4;" d="M904 1494 q52 -29 205 -65 q105 -65 105 -145 q45 -117 45 -260 l-10 -115 l20 -15 q305 105 400 120 q90 -7 185 -105 l10 -30 q-28 -54 -110 -85 l-155 5 l-55 0 q-70 0 -260 -40 q-60 0 -60 -85 q-24 -146 -85 -290 l5 -5 l15 0 q247 105 285 105 q155 -24 155 -55 l15 -15 l0 -15 q0 -130 -145 -290 l0 -10 q0 -15 110 -50 q30 -28 30 -60 l0 -20 q0 -25 -70 -50 q-47 -42 -280 -160 l-115 -55 l-10 15 q135 114 135 140 l-15 5 q-76 -40 -160 -40 q-30 32 -30 90 q0 81 180 245 l0 10 l5 0 q-10 22 -20 25 l-35 0 l-35 -5 q-150 0 -150 35 q-38 63 -50 135 l-50 40 l0 10 q0 6 65 30 q58 61 85 190 l5 30 l-20 10 l-490 -165 l-140 -35 q-87 0 -160 45 q-54 53 -125 160 l0 10 l10 10 l5 0 q86 -40 135 -40 l80 0 q76 0 370 75 q270 70 355 105 q25 0 25 170 q-27 220 -80 220 q-53 41 -120 180 q-25 36 -25 80 l20 10 ZM794 334 q81 -40 135 -175 l90 -370 l35 -50 l0 -20 q0 -10 -30 -20 q-81 10 -155 60 q-100 48 -100 180 q30 134 30 225 q0 56 -25 160 l20 10 Z" /><glyph glyph-name="" unicode="&#x540e;" d="M1206 1483 q164 0 203 -30 q76 -61 93 -95 l0 -9 q0 -28 -146 -147 q-153 -102 -382 -181 l-114 -30 l-154 52 q0 -16 53 -78 l28 -134 q32 -35 98 -35 l12 0 l40 13 l9 0 l24 -4 q111 37 296 125 q38 0 53 52 q17 17 33 17 l4 0 l32 -8 l4 0 l45 13 q26 -35 45 -35 l36 9 l33 0 q81 -31 81 -100 l0 -12 q-28 -130 -53 -130 q-70 -65 -93 -65 l-53 13 l-53 -4 l-36 17 q-312 0 -370 -95 q-69 -109 -69 -142 l0 -18 q23 -23 57 -116 l32 -18 q36 0 86 74 q254 138 288 138 l126 9 q199 -135 199 -199 q0 -71 -57 -117 q-88 -79 -146 -112 l-4 -17 q0 -8 49 -52 l8 -43 l0 -9 l-21 -21 l-8 0 l-36 13 l-41 -5 l-73 13 q-149 -34 -305 -82 l-16 0 q-54 0 -89 100 q-49 47 -49 56 l8 47 q-49 162 -49 294 q0 180 118 246 q0 7 61 52 l0 8 q-21 24 -162 52 l-78 18 l-12 -13 q33 -248 33 -311 q0 -92 -110 -380 q-59 -119 -114 -199 q-97 -95 -146 -95 l-12 0 q-155 65 -155 125 q-24 33 -24 52 l8 13 l41 -4 l4 0 q93 0 158 142 q35 40 77 186 q23 30 37 155 q31 0 57 341 l-4 18 l4 52 q0 39 -57 129 l-24 61 l0 60 q0 24 20 30 q62 -47 81 -47 q148 19 386 233 q0 14 -53 47 l-16 48 l4 4 l0 5 l29 -5 l20 0 l57 30 q20 0 114 35 ZM1323 287 l-36 4 q-39 -24 -134 -52 q-105 -57 -110 -69 l0 -8 q11 -104 49 -104 q29 0 130 69 l138 160 l0 4 l-8 9 l-8 0 l-21 -13 Z" /><glyph glyph-name="" unicode="&#x541b;" d="M1377 1537 l5 0 q225 0 225 -70 l10 -60 q0 -75 -90 -125 q-25 0 -105 -335 q0 -70 -125 -205 l-20 -5 l-110 30 q-20 0 -180 -100 q-75 -41 -75 -90 q-9 0 -10 -25 q0 -30 75 -65 q110 -160 110 -255 q11 -12 25 -90 l25 -10 q108 0 175 145 l95 140 l0 30 q0 11 -25 15 q-84 -20 -150 -20 l-20 0 q-86 0 -150 50 l0 5 q0 13 110 20 q128 35 275 115 q0 18 100 35 q200 -44 200 -110 l0 -5 q0 -73 -155 -270 l-75 -65 l0 -5 q1 -11 70 -45 q22 -29 35 -90 q-27 -80 -60 -80 q-71 20 -370 35 l-15 -20 q10 -22 10 -65 l0 -30 q-10 -50 -50 -50 q-97 0 -190 155 l-10 45 l5 55 q-14 350 -60 350 q-15 0 -100 -180 q-45 -48 -110 -160 q-12 0 -100 -95 q-161 -145 -255 -145 l-5 0 l-10 10 l0 5 q355 417 390 620 l25 45 q-5 20 -20 20 q-71 -20 -190 -20 q-175 50 -175 160 q0 50 130 130 l5 0 l10 -15 q-110 -95 -110 -115 l0 -10 q33 -50 145 -50 l135 45 q135 26 135 115 q11 17 20 105 q0 13 -25 25 l-70 -20 q-73 0 -115 55 q-68 26 -140 105 l-5 0 l0 10 q11 0 115 -70 l20 0 q119 21 210 70 l5 5 l0 60 q0 31 -55 60 l-10 20 q0 46 85 75 l5 5 l0 15 l-30 0 q-26 0 -30 15 l0 10 q0 13 180 30 q404 130 435 130 ZM882 1362 l-5 -25 q45 -25 110 -95 l45 -30 l25 5 l5 0 q63 0 85 -30 l0 -20 q-120 -81 -120 -115 q0 -11 85 -50 q12 -25 40 -25 q17 14 60 200 l-5 5 l0 5 l15 135 l-20 20 l-125 -5 l-25 0 q-62 0 -140 25 l-30 0 Z" /><glyph glyph-name="" unicode="&#x5468;" d="M1438 1504 q252 -73 320 -193 l5 -19 l0 -5 q0 -18 -110 -147 q-35 -51 -35 -291 l-5 -51 q9 -92 15 -92 l-5 -23 l0 -14 l40 -259 l-10 -27 l0 -10 q0 -109 75 -414 q0 -123 -100 -167 l-15 0 q-48 0 -85 120 q-94 253 -175 332 l0 14 q0 9 15 9 l125 -41 q20 3 20 32 l5 0 l-35 259 l5 41 l0 5 l-15 69 l0 138 l5 65 q-48 448 -90 448 l-50 4 l-30 0 q-137 -4 -145 -32 l0 -9 q40 -24 40 -171 l10 -65 l20 -13 l5 4 l40 0 q60 -6 60 -41 q0 -53 -115 -130 l-10 -27 q0 -12 15 -23 l120 9 q95 -5 95 -32 l0 -14 q-91 -97 -190 -97 q-185 -75 -290 -176 l15 -13 q62 0 255 124 l60 9 l20 0 q62 0 90 -73 l0 -24 q0 -76 -140 -230 q0 -17 50 -33 q30 -32 30 -64 l0 -14 q0 -31 -40 -51 q-92 19 -180 19 q-69 0 -80 -28 q10 -19 10 -51 l0 -18 q0 -32 -35 -32 q-57 0 -135 101 l-35 235 q-10 49 -40 116 l0 4 q0 10 15 10 q56 0 135 -162 q24 -115 55 -115 q100 44 100 101 q60 81 60 139 l-20 9 l-125 -19 q-30 0 -110 33 q-22 0 -30 18 l0 5 l100 97 l0 9 q0 9 -15 9 l-155 -14 l-65 5 q-20 0 -35 -143 q-70 -292 -165 -503 q-60 -138 -110 -138 l-45 -14 q-80 21 -80 92 q-10 0 -20 65 l5 51 l-20 258 l5 4 l5 0 q15 0 15 -27 q51 -139 100 -139 q20 0 50 111 q20 22 80 258 q90 313 90 467 l-10 36 l10 42 l-10 120 l10 42 q-24 207 -60 207 q-4 12 -55 37 l0 9 l10 10 l35 0 q40 0 150 -116 l5 0 q459 167 535 180 q100 0 190 23 ZM883 1195 l-100 9 q-25 0 -25 -23 l10 -60 l0 -78 l-15 -93 q28 -23 100 -23 q107 0 245 42 l10 23 q-18 152 -60 152 l-80 -4 l-5 4 l0 5 q80 54 80 83 l-160 -37 ZM753 872 l-5 -185 l20 -13 l295 64 q20 18 20 65 l-20 14 l-45 0 q-82 0 -245 78 q-20 -5 -20 -23 Z" /><glyph glyph-name="" unicode="&#x56fd;" d="M1234 1537 q136 0 225 -55 q250 -90 250 -195 l0 -20 q-30 -155 -30 -240 l-15 -320 l5 -45 l-5 -25 q25 -190 25 -365 q-19 -414 -55 -414 q-35 -30 -70 -30 l-20 0 q-66 36 -130 135 q-74 49 -100 49 l-380 -19 l-195 44 l-95 10 q-11 -9 -45 -89 l-25 -20 l-25 0 q-140 133 -140 199 q0 27 30 130 l-20 215 l5 20 l0 10 l-5 0 l5 85 l0 85 l10 405 l-25 30 l35 55 l5 0 l150 -150 q19 -90 45 -90 q50 0 285 110 l5 25 q0 16 -55 25 l-10 15 l0 5 q13 105 70 105 l25 0 q29 0 60 -95 q5 -15 30 -15 q0 18 75 25 l10 0 q45 -6 45 -45 q0 -15 -90 -115 l0 -10 q87 -172 105 -175 l10 0 q32 45 80 45 l15 0 l30 -30 l0 -45 l-20 -165 q0 -57 45 -100 l5 0 l10 10 l-5 40 l5 5 l15 0 q47 -52 85 -125 l10 0 l5 5 l5 0 l-5 85 l0 255 l-5 415 l5 30 q-17 140 -115 140 l-195 0 q-40 0 -40 -25 q170 -80 170 -160 l0 -30 q0 -27 -20 -35 l-10 0 q-72 0 -150 185 l-20 25 q-27 20 -45 20 l-30 0 q-59 -20 -435 -70 l-5 5 l0 15 q3 8 180 55 q187 102 355 180 l105 20 ZM859 847 l0 -20 l-10 -75 q10 0 10 -15 l50 10 q61 0 115 -105 l5 -15 q-48 -150 -105 -150 l-85 20 q-153 -85 -180 -85 q-45 22 -45 75 l0 30 q13 60 165 285 l5 25 q0 17 -120 40 q-9 13 -35 20 q-25 0 -25 -75 l0 -120 l5 -95 q-25 -69 -25 -170 q0 -75 45 -75 q180 34 340 125 q49 19 140 140 q10 0 10 -15 q-31 -132 -120 -220 q-181 -110 -345 -110 q-30 0 -30 10 q-23 -10 -25 -20 l0 -45 q15 -140 85 -140 q108 0 260 65 q56 19 145 30 l40 20 l165 10 q128 -10 170 -30 q40 8 40 60 l0 15 q0 13 -20 15 l-20 -5 q-74 15 -190 175 l-15 0 q-68 -127 -140 -185 q-80 -50 -105 -50 q-125 0 -125 65 q22 18 90 40 q111 49 205 260 l0 15 q0 21 -175 335 l-25 5 q-116 -48 -125 -70 ZM1224 737 l0 -10 l20 0 l-10 10 l-10 0 ZM754 572 l0 -5 l10 -10 q125 38 125 90 l0 5 q0 28 -35 50 l-5 0 q-31 -21 -95 -130 Z" /><glyph glyph-name="" unicode="&#x5728;" d="M1354 1439 q57 0 90 -95 q170 -48 170 -120 l0 -10 q0 -67 -250 -115 q-100 -65 -140 -145 l-65 -100 q-34 -84 -125 -200 l-90 -185 l0 -10 l5 0 l-5 -50 l5 -320 q0 -219 -55 -325 q0 -22 -20 -30 l-15 0 q-70 40 -100 150 l0 5 l45 320 l-5 5 l-20 0 q-53 -107 -250 -345 q-168 -175 -240 -175 q-55 20 -55 105 q0 78 95 185 q76 38 160 130 l210 285 q115 166 115 185 q-95 119 -95 205 l0 15 q0 11 25 15 q7 -21 90 -40 l55 -55 l15 0 q28 20 60 85 l-5 35 q47 0 90 95 q-4 15 -20 20 l-70 -25 q-58 0 -255 200 l0 5 q0 28 390 45 q135 10 135 65 q65 190 125 190 ZM1364 819 l10 0 q141 0 175 -100 q6 -40 20 -40 l40 0 l75 5 q31 -34 35 -65 q-33 -130 -130 -130 q-55 0 -55 -125 q-35 -235 -75 -330 q-30 -41 -30 -55 l20 -10 l285 70 l45 0 l20 5 q70 -23 70 -105 l0 -5 q-12 -90 -75 -90 l-60 0 q-334 -30 -385 -45 q-225 21 -225 110 l0 5 q10 70 65 70 l5 -5 l0 -5 q-40 -28 -40 -50 l25 -20 q10 10 65 10 q60 17 60 30 q0 17 -55 25 l-30 0 l-10 10 l0 5 q0 8 65 30 q95 103 95 255 q7 0 10 60 q-24 49 -55 70 l-95 -20 q-203 21 -230 50 l0 5 q0 8 120 30 l240 120 l10 20 q-20 130 -65 130 l-5 5 l0 5 q0 28 65 75 Z" /><glyph glyph-name="" unicode="&#x5730;" d="M1231 1185 q58 -21 58 -56 l0 -10 l-53 -160 l5 -5 l13 0 q119 115 189 115 l18 0 q89 -13 89 -56 q0 -54 -60 -123 q-50 -53 -160 -355 q-60 -82 -106 -83 q-83 0 -83 83 l-6 4 q0 14 -11 14 l-18 0 q-39 -134 -113 -134 l-5 0 q-11 0 -65 65 l-13 0 q-15 0 -17 -18 q18 -245 89 -245 q25 -16 142 -23 l100 5 l12 0 l23 -5 l25 5 l106 -5 q173 26 354 152 q202 177 202 286 l0 46 l11 9 l7 0 q13 -5 41 -105 l0 -4 q0 -153 -124 -357 q-145 -120 -255 -120 q-45 -14 -171 -22 l-82 10 l-36 -10 l-48 5 l-83 -9 l-5 4 l-178 -8 q-165 24 -165 193 q-21 166 -29 170 l-13 0 q-15 -7 -118 -147 l-461 -401 l-12 0 q-23 0 -31 83 q5 62 167 281 q41 150 41 290 l-17 14 q-83 -18 -218 -120 l-30 0 q-128 74 -137 111 l24 9 l76 -5 q75 0 308 121 l6 17 q-47 62 -53 120 q8 19 18 19 l6 0 q11 0 11 -14 l6 -5 l12 0 q18 0 29 179 l-5 5 l-13 0 l-5 -5 q-11 0 -12 -21 l-6 -6 l-12 0 q-11 0 -11 14 q33 157 89 157 q111 -29 111 -69 q-76 -196 -76 -295 l-5 -28 l0 -9 q0 -32 64 -42 l6 -3 l0 -19 q0 -23 -70 -70 l-8 -17 l0 -70 q0 -232 -118 -319 l-35 -64 l6 0 l355 231 q112 111 112 239 l-6 245 l6 87 l-29 78 l23 10 q71 -26 71 -116 l-5 -142 l5 -19 l-5 -37 l0 -46 q0 -11 29 -14 q61 74 188 179 q25 67 30 185 l-17 120 q0 37 131 56 ZM1135 636 q8 -19 30 -28 l19 0 q43 0 87 208 l-17 8 l-5 0 q-75 -38 -108 -160 l-6 -28 ZM1035 700 q-103 -82 -117 -106 q0 -17 35 -36 l11 0 q71 0 95 124 l0 6 l-24 12 ZM1231 1225 q58 -21 58 -56 l0 -10 l-53 -160 l5 -5 l13 0 q119 115 189 115 l18 0 q89 -13 89 -56 q0 -54 -60 -123 q-50 -53 -160 -355 q-60 -82 -106 -83 q-83 0 -83 83 l-6 4 q0 14 -11 14 l-18 0 q-39 -134 -113 -134 l-5 0 q-11 0 -65 65 l-13 0 q-15 0 -17 -18 q18 -245 89 -245 q25 -16 142 -23 l100 5 l12 0 l23 -5 l25 5 l106 -5 q173 26 354 152 q202 177 202 286 l0 46 l11 9 l7 0 q13 -5 41 -105 l0 -4 q0 -153 -124 -357 q-145 -120 -255 -120 q-45 -14 -171 -22 l-82 10 l-36 -10 l-48 5 l-83 -9 l-5 4 l-178 -8 q-165 24 -165 193 q-21 166 -29 170 l-13 0 q-15 -7 -118 -147 l-461 -401 l-12 0 q-23 0 -31 83 q5 62 167 281 q41 150 41 290 l-17 14 q-83 -18 -218 -120 l-30 0 q-128 74 -137 111 l24 9 l76 -5 q75 0 308 121 l6 17 q-47 62 -53 120 q8 19 18 19 l6 0 q11 0 11 -14 l6 -5 l12 0 q18 0 29 179 l-5 5 l-13 0 l-5 -5 q-11 0 -12 -21 l-6 -6 l-12 0 q-11 0 -11 14 q33 157 89 157 q111 -29 111 -69 q-76 -196 -76 -295 l-5 -28 l0 -9 q0 -32 64 -42 l6 -3 l0 -19 q0 -23 -70 -70 l-8 -17 l0 -70 q0 -232 -118 -319 l-35 -64 l6 0 l355 231 q112 111 112 239 l-6 245 l6 87 l-29 78 l23 10 q71 -26 71 -116 l-5 -142 l5 -19 l-5 -37 l0 -46 q0 -11 29 -14 q61 74 188 179 q25 67 30 185 l-17 120 q0 37 131 56 ZM1135 676 q8 -19 30 -28 l19 0 q43 0 87 208 l-17 8 l-5 0 q-75 -38 -108 -160 l-6 -28 ZM1035 740 q-103 -82 -117 -106 q0 -17 35 -36 l11 0 q71 0 95 124 l0 6 l-24 12 Z" /><glyph glyph-name="" unicode="&#x5764;" d="M1307 1537 q63 0 110 -60 q85 -72 85 -100 l0 -25 q-75 -229 -75 -270 l20 -10 q196 55 260 55 l20 0 q42 0 125 -140 l5 -25 l0 -10 q0 -30 -225 -260 l0 -5 q0 -18 75 -25 q20 0 20 -60 q8 0 15 -20 q0 -45 -210 -60 q-90 -26 -90 -50 q25 -145 25 -320 q-15 -444 -60 -444 l-10 0 q-80 14 -80 155 l10 289 l-5 220 q-4 45 -35 45 q-130 -80 -210 -80 q-57 0 -120 85 l-20 0 q-118 -120 -255 -235 l-150 -150 l-15 0 q-24 0 -40 105 q210 384 210 450 q9 100 15 100 l-5 25 l0 55 l-25 20 q-148 -52 -250 -145 l-20 0 q-80 17 -185 115 l0 5 l15 15 q220 0 445 130 l20 20 q0 12 -50 85 l-15 45 q0 231 85 365 l5 5 l35 0 q120 -22 120 -70 q-75 -205 -75 -330 l-5 -30 l0 -10 q0 -28 25 -35 l25 5 q35 -15 35 -45 l0 -10 q-22 -31 -75 -60 l-10 -15 l0 -25 l-5 -95 l5 -40 q0 -105 -50 -200 l-130 -170 l0 -5 l5 0 q34 0 280 185 q0 25 10 25 l20 0 q32 0 50 -60 l45 -15 q60 5 60 25 q-70 144 -70 165 q-35 129 -35 230 q16 145 40 145 l5 0 q17 0 25 -85 l20 -10 q226 107 230 130 q-14 355 -45 355 l-115 70 l0 5 q0 9 55 30 q29 29 110 45 ZM662 1167 l0 -20 q7 -75 25 -75 l20 0 l15 210 l-5 5 l-15 0 q-40 -46 -40 -120 ZM1422 867 q0 -9 25 -30 l30 10 l55 -25 q35 0 65 160 l-15 10 q-152 -24 -155 -75 l-5 -50 ZM1202 852 l-110 10 q-13 0 -25 -25 q37 -135 85 -135 q150 38 150 100 l5 55 l-20 15 l-85 -20 ZM1437 702 l0 -55 l20 -15 q44 0 65 120 l-15 10 q-70 -18 -70 -60 ZM1177 642 q25 -38 25 -115 l0 -5 q0 -15 20 -15 q90 28 90 125 l0 10 q0 35 -30 35 q-105 -7 -105 -35 Z" /><glyph glyph-name="" unicode="&#x5792;" d="M1048 1537 q70 -20 70 -60 l0 -25 q-15 -107 -30 -125 l5 -30 l-100 -145 l-110 -115 l0 -5 l10 -10 q51 0 210 55 q63 0 80 85 l0 60 q0 31 -50 65 l0 5 q0 20 85 20 q110 -37 110 -70 q41 -70 95 -110 l0 -15 l-65 -145 l5 -30 l-100 -145 l-110 -115 l0 -5 q0 -10 15 -10 q275 63 275 95 l5 35 l0 60 l5 20 q0 20 -50 55 l0 5 q0 20 85 20 q110 -37 110 -70 q41 -69 100 -115 l0 -10 q-113 -200 -180 -200 l-15 0 l-130 50 l-25 0 q-73 -30 -200 -65 q-50 -22 -50 -35 q0 -9 75 -70 q28 -95 50 -95 l120 20 l15 0 q100 -24 100 -95 q-20 -40 -130 -40 q-95 -15 -95 -65 q-27 -117 -50 -150 l0 -10 l15 -14 l190 19 q229 -5 290 -64 q20 -30 20 -70 q0 -25 -45 -25 l-105 0 q-158 50 -225 50 q-228 0 -645 -90 q-207 50 -230 95 l0 5 l10 10 l125 -10 l465 65 l5 24 l-40 35 l0 5 l60 45 l10 35 l0 40 l-15 20 q-36 -10 -115 -10 q-217 3 -270 60 l10 10 l145 0 q220 26 220 50 l0 10 q-55 37 -130 165 l-5 5 l-5 0 l-80 -20 l-125 50 l-30 0 q-70 -30 -155 -50 q-92 -40 -120 -40 q-49 0 -65 90 l0 50 q0 44 225 305 q60 91 60 200 l30 15 q21 0 65 -40 l5 0 q18 10 125 165 q165 158 165 295 q0 36 30 45 ZM808 872 q-33 0 -75 75 l-5 0 q-15 0 -30 -80 l-5 -5 l5 -30 q-29 -26 -65 -100 l-145 -155 l0 -10 q0 -10 15 -10 q275 63 275 95 l5 35 l0 60 l5 20 q-4 21 -50 55 l0 5 q0 20 85 20 q83 0 160 -150 l5 -5 l25 0 l110 145 q65 61 65 80 q0 25 -85 40 l-15 0 q-128 -24 -280 -85 ZM993 597 q-25 -31 -25 -45 q0 -23 45 -30 q20 7 20 15 q-11 60 -40 60 Z" /><glyph glyph-name="" unicode="&#x5806;" d="M1065 1537 q111 0 190 -115 l5 -20 l0 -10 l-10 -85 l5 -5 l15 0 q71 75 150 75 l20 0 q107 0 150 -80 l5 -30 q0 -19 -185 -175 q-86 -63 -145 -155 q-85 -121 -85 -185 l5 -5 l5 0 q30 0 295 155 q102 50 145 50 l50 0 q75 -18 75 -60 q0 -37 -145 -80 q-1 -9 -100 -60 l-15 -40 q27 -65 50 -65 l50 20 q101 0 130 -80 l0 -5 q0 -47 -180 -70 q-25 -19 -25 -45 l0 -10 q0 -27 20 -35 l75 15 l5 0 q78 0 110 -60 l0 -15 q0 -39 -90 -50 q-135 -28 -135 -80 l0 -10 l-5 0 q3 -125 30 -125 l10 0 q20 10 20 25 l-15 40 l5 5 l15 0 q73 -55 110 -55 l55 0 q155 -17 155 -90 l0 -5 q0 -25 -120 -39 l-75 10 q-211 0 -440 -15 l-90 5 l-15 -25 q80 -152 80 -190 l0 -25 q-31 -50 -65 -50 q-100 0 -135 100 q-25 47 -35 100 l5 65 l-10 234 q0 183 35 485 l0 5 l-5 20 q55 115 95 265 l-15 10 q-43 -35 -60 -35 l-15 0 q-38 0 -80 160 l0 5 q0 19 80 180 q70 133 70 160 q0 19 -35 45 l-60 0 l-10 10 q0 12 80 40 ZM735 1462 q135 -42 135 -90 q-80 -216 -80 -385 l-5 -30 l0 -40 q0 -19 65 -25 q20 -27 20 -45 q0 -29 -80 -85 q-10 -22 -10 -65 l0 -65 l5 -80 q-15 -133 -40 -215 q-42 -47 -160 -225 l0 -15 q28 0 300 220 q30 30 50 30 l5 -5 l0 -5 q0 -114 -275 -359 l-120 -130 q0 -18 -35 -45 l-5 0 q-45 33 -45 110 l0 5 q0 70 160 304 q65 186 65 460 l-25 15 q-110 -65 -265 -175 l-25 0 q-24 7 -120 110 l-50 35 l0 5 q0 13 20 15 q176 0 265 55 q103 43 205 125 q-70 103 -70 170 l0 75 l5 5 l-5 5 q0 188 75 320 q24 20 40 20 ZM680 1282 q-35 -96 -35 -165 q0 -39 25 -90 l15 0 q15 0 15 105 l-5 5 l0 5 q10 22 10 80 l0 50 l-10 10 l-15 0 ZM1160 567 l0 -55 q10 -20 25 -20 q180 58 180 80 q-29 100 -65 100 q-135 -28 -135 -50 l-5 -55 ZM1235 442 l-50 0 q-27 0 -35 -20 l-5 -130 l20 -15 q205 35 205 85 q0 95 -30 95 l-105 -15 ZM1140 157 l30 -15 q70 47 70 55 q0 9 -70 20 l0 5 q-30 0 -30 -65 ZM1135 52 q13 -25 40 -25 q178 19 185 50 q0 120 -30 120 q-190 -68 -190 -105 l-5 -40 Z" /><glyph glyph-name="" unicode="&#x58c1;" d="M1177 1503 q91 0 225 -75 l25 -35 l0 -15 q0 -35 -105 -35 l-10 0 q-155 0 -155 25 l0 5 q40 30 40 55 l-35 55 l0 5 l15 15 ZM1542 1378 l10 0 q95 -34 95 -85 q0 -25 -90 -55 l0 -20 q70 -23 70 -60 q-34 -62 -155 -140 l0 -10 l10 0 l215 25 q75 -22 75 -65 l0 -5 q0 -39 -30 -55 l-75 0 l-220 30 l-5 0 q-55 0 -55 -25 l0 -5 q33 0 45 -50 l-5 -65 l20 -15 q85 25 165 25 q70 -12 70 -50 q0 -27 -195 -60 q-50 -17 -50 -30 l10 -175 l0 -30 q-13 -250 -65 -250 q-190 -34 -190 -50 q-38 -179 -60 -179 l15 -25 l200 20 q231 -8 290 -70 q15 -40 15 -70 q-21 -20 -50 -20 l-95 0 q-156 50 -240 50 l-15 0 q-189 0 -635 -90 q-167 46 -205 95 l10 10 l85 -5 l5 0 q62 0 280 35 l210 30 l10 15 l0 5 l-40 35 l0 14 q65 33 65 70 l0 45 l-15 20 q-36 -10 -115 -10 l-45 5 l-5 -5 q-102 0 -220 55 l0 10 l5 5 l0 5 l40 -5 q330 20 330 60 l0 5 q-51 29 -150 195 l-25 10 q-55 -18 -55 -30 l5 -40 l-25 -10 q-92 0 -160 85 q-4 40 -10 40 l5 35 l0 100 l-25 0 q-38 -137 -110 -255 q-16 -19 -130 -35 q-34 13 -55 45 l0 15 l95 70 q52 87 100 205 q65 183 65 300 l0 30 q0 78 -45 115 q-55 156 -55 200 l0 15 l15 15 l10 0 q63 -55 145 -95 q52 -80 85 -80 l245 120 l5 0 l65 -5 l15 5 l70 -70 l5 0 q91 0 340 85 q42 30 105 45 ZM1192 1093 l15 0 q53 0 230 105 l0 20 l-5 0 q-34 0 -240 -110 l0 -15 ZM982 1088 l0 -15 l10 -15 l0 -25 q0 -46 -250 -95 q-105 -23 -105 -85 l-20 -105 q9 -23 20 -25 q23 20 115 55 q130 89 200 95 l5 5 l0 10 l-30 30 l0 5 q0 10 15 10 l170 -5 q155 33 155 60 l0 10 l-5 0 l-105 -20 q-44 0 -75 70 q0 80 75 80 q52 23 80 50 q0 13 -20 15 l-60 -10 l-55 20 l-120 -115 ZM742 1133 l-65 25 q-13 0 -15 -20 l5 -40 l-5 -45 l25 -15 q205 70 205 125 l5 15 l-10 10 q-112 -55 -145 -55 ZM1132 823 q-25 0 -50 15 q-23 0 -35 -95 q-10 -4 -25 -50 l20 -10 q280 49 280 80 q-19 130 -50 130 q-16 0 -135 -70 l-5 0 ZM722 673 l-25 0 q-10 0 -10 -15 q30 -105 45 -105 l15 0 q0 12 85 115 l0 10 l-5 5 l-5 0 l-100 -10 ZM1002 628 l10 -30 q0 -52 -95 -80 l0 -15 q0 -14 115 -30 q120 -64 120 -150 l25 -20 q120 19 120 60 l20 135 l-5 30 l10 75 q0 25 -20 30 q-99 -25 -140 -25 l-140 30 l-10 0 l-10 -10 Z" /><glyph glyph-name="" unicode="&#x590d;" d="M803 1537 q94 0 155 -96 l0 -5 q0 -54 -170 -188 q-27 -38 -95 -92 l5 -5 l5 0 q25 5 270 138 q41 12 110 50 q137 46 205 46 l30 0 q73 0 120 -59 l0 -14 q-2 -8 -70 -41 q-20 -65 -85 -65 q-67 0 -175 -46 q-80 0 -215 -73 q-30 -35 -30 -69 l0 -18 l15 -14 q156 92 280 92 q110 0 140 -60 q45 -74 45 -193 q0 -244 -35 -266 q-35 -111 -75 -111 l-5 -23 l50 -59 l0 -19 q0 -36 -160 -239 l0 -9 q0 -39 145 -101 q49 -25 180 -64 q81 -51 405 -142 l40 9 q50 0 50 -37 q0 -25 -30 -41 l-85 14 l-5 0 l-260 -37 q-128 0 -410 184 q0 23 -135 96 l-5 0 q-338 -331 -585 -331 l-20 0 l-20 19 q0 11 75 27 q115 30 375 257 q46 47 70 87 l0 19 q-112 92 -185 92 q-194 -166 -390 -166 l-5 0 q-45 0 -45 37 q28 74 185 152 q52 16 65 36 l0 5 q0 18 -110 23 q-33 0 -160 -28 l-10 0 l-10 10 q0 42 335 73 l35 9 l50 -27 q70 29 175 165 l5 18 l0 10 l-35 -5 q-135 71 -135 207 q0 170 55 326 l-5 5 l-15 0 q-176 -120 -280 -120 l-5 0 q-44 0 -75 92 l0 37 q0 25 80 92 q285 259 285 303 q0 18 -55 18 l-5 5 l0 14 q97 96 155 96 ZM838 793 l20 -14 q128 47 255 69 l45 -5 l10 0 l25 19 q-22 147 -55 147 l-25 0 q-275 -85 -275 -202 l0 -14 ZM1068 742 l0 -9 q0 -7 75 -32 q0 -13 40 -18 q15 15 20 50 q-10 32 -35 32 l-100 -23 ZM838 715 q4 -106 30 -106 l25 0 q36 0 85 92 l20 18 l0 5 q-8 18 -35 18 q-114 -12 -125 -27 ZM1013 462 l0 -5 q140 0 140 46 l10 33 q0 13 -30 27 q-120 -54 -120 -101 ZM863 522 l0 -14 l10 0 q8 0 15 18 l-5 5 l-10 0 l-10 -9 ZM828 237 q0 -30 85 -55 q33 -23 55 -23 l5 0 q20 0 105 193 l0 4 l-25 5 q-185 -92 -225 -124 ZM368 58 l0 -5 l15 -18 q66 0 210 147 l-5 4 l-5 0 q-115 -32 -215 -128 Z" /><glyph glyph-name="" unicode="&#x5915;" d="M951 1537 q53 -6 135 -135 q15 -5 15 -30 q0 -34 -35 -95 q0 -56 -175 -185 l-30 -35 l0 -15 l10 -10 q245 72 245 120 l160 55 l105 45 q58 0 145 -100 l10 -125 q-50 -29 -50 -100 q-39 -204 -490 -785 q-135 -125 -150 -125 q-117 -100 -200 -135 q-204 -140 -300 -140 l-5 0 l-15 15 l0 5 q205 108 210 140 q209 185 250 270 l145 175 q0 16 -65 55 q-93 94 -295 210 l0 20 q83 75 265 75 q98 0 145 -75 q40 -41 40 -80 q-15 -26 -15 -50 l0 -5 l15 0 q85 130 175 380 l15 45 l-20 15 l-270 -75 q0 -29 -130 -70 q-128 -50 -200 -50 q-80 37 -80 100 l0 15 l5 20 l-5 20 l0 15 q4 57 105 145 q174 187 190 270 l0 15 l-35 40 l0 10 q0 45 160 140 l20 5 Z" /><glyph glyph-name="" unicode="&#x591a;" d="M1295 1918 q22 -12 52 -27 q95 -52 95 -105 q15 -14 41 -122 l-84 -162 q113 -48 113 -127 q24 -66 24 -100 l0 -42 q0 -150 -242 -342 q-186 -105 -350 -135 l-17 0 l-142 -7 q-118 38 -118 85 q87 181 189 257 q44 63 189 63 q63 0 154 -53 l6 0 q129 35 129 111 q14 0 31 131 l0 6 q0 53 -36 57 q-91 -75 -237 -120 q-89 -37 -118 -37 l-24 0 l-23 5 q-45 -5 -189 -52 l-7 4 l0 6 q313 244 361 300 q122 129 154 179 l0 36 l18 65 q-2 2 -4 4 l35 122 ZM1476 59 q-58 67 -99 67 q-239 -188 -264 -188 q-126 -96 -446 -198 q-155 4 -155 27 l0 6 q0 11 117 33 q144 51 438 265 q46 33 129 127 q0 44 -148 71 q-21 16 -58 17 l0 5 q-139 -44 -232 -44 q-30 11 -33 22 q336 231 451 414 q129 169 129 247 l0 17 l-12 66 l26 11 q187 -55 187 -127 l-142 -165 q-124 -189 -239 -325 q-20 -26 -20 -60 q0 -37 143 -72 q81 0 148 220 l6 39 q-12 27 -38 27 l-19 22 l0 22 q0 67 148 67 l38 0 q111 0 111 -105 q0 -62 -188 -336 l0 -6 q12 -13 60 -38 l-38 -128 ZM832 980 l0 -10 q0 -130 41 -130 q69 10 249 104 l18 15 l0 6 l-89 -32 q-84 0 -136 110 q0 18 18 37 l0 5 l-13 12 q-61 0 -88 -117 Z" /><glyph glyph-name="" unicode="&#x5927;" d="M789 1537 q150 0 310 -135 q45 -124 45 -225 l0 -65 q0 -77 -20 -170 l15 -10 q170 40 255 40 q330 0 330 -170 q0 -75 -45 -75 l-30 5 l-55 -15 l-30 0 q-174 30 -220 30 l-30 -5 l-25 5 q-205 -17 -205 -50 l-55 -200 q0 -23 225 -40 q121 -4 390 -210 q265 -233 265 -320 l0 -15 q0 -28 -25 -35 l-70 40 q-32 -15 -60 -15 q-115 0 -165 80 q-103 128 -250 285 q-149 128 -305 170 q-25 0 -105 -210 q-174 -350 -350 -350 l-30 0 q-19 0 -40 85 q-25 34 -25 60 l5 5 l5 0 q47 -35 80 -35 q42 6 180 280 q100 300 100 330 q0 8 -20 15 l-395 -150 l-5 0 q-144 83 -255 115 l0 10 l5 5 l0 5 l100 -5 l15 0 q107 0 460 180 q135 43 135 75 l-5 60 l5 160 q0 276 -55 320 q-41 60 -170 100 l0 15 q0 12 120 30 Z" /><glyph glyph-name="" unicode="&#x5929;" d="M1304 1447 q78 -9 78 -57 q-62 -87 -160 -140 q-140 -36 -270 -36 l-28 -6 l0 -20 q83 -30 83 -104 q17 -202 44 -202 q83 33 83 67 q-39 26 -39 52 l50 15 l110 0 q154 0 154 -46 l6 -5 q0 -124 -122 -161 q-55 -47 -264 -109 l-11 -21 l0 -21 q0 -36 127 -129 q77 -91 237 -208 q50 -55 286 -145 q380 -94 380 -254 q-22 -52 -66 -52 l-11 0 q-370 73 -463 150 q-141 105 -380 358 q-119 151 -143 151 q-21 0 -61 -114 q-257 -503 -649 -503 q-61 32 -61 78 q23 15 143 20 q85 28 265 218 q60 83 214 353 q-4 15 -22 20 q-70 -31 -93 -31 l-22 0 q-243 47 -243 83 l0 11 q0 21 166 51 q275 62 275 135 l5 73 l0 26 q0 148 -55 187 l-11 0 q-22 0 -60 -32 q-11 0 -11 16 q6 24 82 83 l0 5 q0 7 -99 47 q-154 86 -154 119 l0 5 l55 16 l220 0 q64 0 259 47 q0 7 176 10 Z" /><glyph glyph-name="" unicode="&#x5931;" d="M956 414 q157 -52 211 -98 q150 -80 302 -218 q111 -84 292 -317 q-3 -16 32 -33 l15 -49 l-10 -44 l-22 -10 l-12 2 q-66 36 -107 76 q-12 3 -17 -20 l-28 -5 q-33 28 -74 43 l-41 -6 q-32 8 -168 146 l-74 108 q-31 15 -113 128 q-111 118 -192 187 q-15 3 -15 25 l-7 -5 l-28 13 l56 77 ZM920 328 q0 -79 -261 -383 q-125 -105 -235 -105 l-6 0 l-26 20 q261 227 381 514 l-6 0 l-51 9 l0 30 l13 10 l57 0 l6 -5 l7 0 q0 19 44 104 q0 26 -82 26 q-102 17 -229 119 l0 10 q0 10 19 10 l88 -10 l26 0 q229 0 229 45 q44 161 44 244 l0 25 q0 18 -133 34 l-6 6 q-30 0 -96 -90 q-116 -135 -209 -135 q-96 18 -96 50 q0 17 153 125 l127 214 q38 83 38 125 l0 20 l-19 19 l0 5 l19 15 q108 -21 146 -50 q30 11 32 20 l-6 121 q0 24 56 24 q179 0 179 -80 q-13 -30 -32 -200 l26 -13 l76 4 q197 0 197 -75 l0 -9 q0 -57 -197 -76 l-102 -14 q-29 0 -44 -284 l25 -15 q57 9 57 35 l-6 35 l19 10 l13 0 q67 -21 209 -41 q55 -23 76 -94 q0 -42 -285 -65 q-115 -23 -147 -54 l-12 0 l0 -71 q-23 -24 -38 -74 q10 -1 20 -2 l-38 -87 l-20 4 ZM920 1180 q0 -8 -58 -25 l0 -4 l13 -11 q29 0 77 35 l-32 5 Z" /><glyph glyph-name="" unicode="&#x5974;" d="M694 1535 q130 -81 130 -160 l-90 -195 q-83 -297 -140 -340 q8 -20 15 -20 q135 66 135 105 l-35 65 q0 95 70 95 q0 8 35 10 q48 0 95 -60 l20 -5 l5 0 l175 115 l5 0 l40 -45 l5 0 q48 0 265 130 q76 45 90 45 q85 -53 85 -95 q0 -39 -85 -70 q-60 -44 -60 -110 q-60 -428 -60 -490 q141 -138 230 -160 l270 -95 q75 -64 75 -155 q-27 -25 -45 -25 l-55 5 l-15 -5 q-163 40 -255 50 q-34 10 -185 185 l-85 85 l-155 -165 q-48 -59 -280 -150 q-70 0 -70 15 l0 5 l85 55 l0 5 q-6 13 -90 55 q-30 25 -30 40 l5 70 q0 42 -50 100 l-10 0 l-85 -130 q-201 -227 -345 -280 l-30 -15 q-150 18 -150 65 l10 10 l25 -5 q141 0 335 270 q79 73 125 205 q0 28 -100 70 q-45 -25 -145 -55 l-80 5 q-100 0 -150 -135 q-6 -50 -20 -50 q-10 0 -10 15 q0 137 140 230 q185 70 185 150 q10 70 180 380 q0 19 50 140 q20 70 20 140 l-10 95 l5 5 l10 0 ZM789 545 l160 -185 q46 -94 65 -100 q39 26 120 150 q65 128 65 160 q0 13 -170 190 l-30 35 l0 10 l10 10 q97 -15 215 -120 l0 -5 l20 0 q16 0 60 235 l-15 20 q-26 -20 -65 -20 q-63 31 -130 95 l-20 0 l-165 -115 l-120 -360 ZM604 670 q0 -27 40 -45 l5 0 q45 0 70 115 l-15 10 q-65 -43 -100 -80 ZM119 355 l15 -15 l0 -25 q0 -87 -35 -105 l-5 0 l-15 15 q20 29 35 130 l5 0 Z" /><glyph glyph-name="" unicode="&#x5982;" d="M773 1354 q105 -30 153 -100 l23 -56 q-261 -512 -282 -567 l5 -4 l0 -5 q189 91 189 126 q-60 40 -60 56 q10 91 60 91 q48 26 74 26 q67 0 125 -60 l13 0 l51 8 q23 -13 23 -30 q-14 -43 -106 -117 l-9 -39 q0 -22 129 -39 q79 -37 79 -82 q27 -35 55 -182 l9 0 l0 -4 q69 56 176 56 q18 11 78 243 q7 0 14 60 l-14 9 l-129 -43 q-80 10 -125 60 q-55 68 -55 86 l14 9 q33 -17 74 -17 q61 0 161 65 q25 7 153 113 l101 8 q68 -69 74 -113 l0 -25 q-78 -376 -203 -490 l0 -9 q32 -65 32 -91 q0 -27 -41 -51 l-19 0 l-282 30 q-15 0 -23 -116 q-20 -18 -37 -18 l-27 0 q-87 0 -111 281 l14 87 q0 65 -102 143 q-31 0 -69 -160 q-60 -108 -60 -134 q268 -212 268 -265 l4 -13 q-12 -45 -97 -86 l-4 0 q-149 17 -166 69 l-5 4 l0 4 l23 74 q-15 37 -79 91 l-4 0 q-18 -10 -125 -156 q-311 -292 -452 -320 l-60 0 q-46 0 -79 35 l0 9 q0 10 83 17 q123 73 250 203 l152 169 q88 131 88 148 q0 36 -111 64 l-19 0 q-118 -69 -193 -69 q-179 0 -222 -48 q-32 -60 -56 -155 l-9 0 l-9 8 q0 92 111 217 q33 31 194 95 q83 54 83 73 q0 76 198 377 q102 220 102 242 q14 0 14 105 q0 41 -19 94 l14 9 ZM676 467 q0 -20 60 -35 q43 0 79 117 l0 9 l-14 0 q-120 -83 -120 -91 l-5 0 Z" /><glyph glyph-name="" unicode="&#x59cb;" d="M769 1498 q145 -69 145 -165 q-135 -304 -250 -605 l10 -10 l10 0 q150 88 150 125 l-50 65 q0 100 60 100 q32 25 60 30 q50 0 105 -65 l15 -5 l45 10 q13 0 25 -25 q0 -29 -110 -180 l-5 -15 l5 -5 l15 0 q96 97 185 320 q49 125 125 250 q40 75 125 75 q93 0 110 -195 q-68 -53 -140 -150 q7 -25 35 -25 l30 0 q306 0 365 -180 l0 -15 q-20 -75 -110 -75 q-60 0 -155 55 q-94 -8 -505 -230 q-32 0 -35 -25 q-18 1 -80 70 q-16 0 -75 -200 q0 -10 120 -110 q102 -116 115 -185 l0 -10 q0 -42 -85 -85 l-5 0 q-150 16 -150 85 l25 70 q-7 32 -65 100 l-15 0 q-20 -14 -120 -175 q-303 -345 -450 -345 q-32 0 -75 50 q0 18 85 40 q146 99 270 275 l110 155 l55 115 q0 42 -105 70 l-170 -80 l-100 0 q-71 0 -110 -35 l-5 0 l0 5 q0 71 205 160 q80 62 80 100 q0 68 195 430 q80 227 80 260 l5 45 l0 40 l-10 90 l15 5 ZM1259 848 l15 -10 q220 28 220 70 l-110 100 q-10 0 -70 -90 l-55 -70 ZM1579 698 q95 0 160 -90 q0 -154 -160 -355 q0 -15 65 -45 q30 -41 30 -95 q0 -44 -35 -70 l-25 0 l-160 15 l-30 0 q-85 0 -85 -30 l15 -85 q0 -60 -40 -60 q-60 0 -150 125 q-14 23 -30 225 q-30 209 -85 275 l-25 25 l0 10 l10 10 q137 0 235 -365 q0 -33 25 -45 l5 0 q85 0 135 180 q45 63 45 145 q0 7 -20 15 q-92 -30 -130 -30 q-77 0 -115 35 l0 5 q0 12 130 50 q65 41 135 70 q16 51 70 80 l30 5 ZM664 543 q0 -24 65 -35 q36 0 65 130 l-5 5 l-5 0 l-120 -100 ZM164 293 l5 0 q-9 -100 -25 -100 l-10 10 q5 80 30 90 Z" /><glyph glyph-name="" unicode="&#x59ff;" d="M960 1537 l6 0 l127 -55 q106 0 150 -145 l-33 -85 l17 -10 l5 0 q47 0 189 50 l34 5 q127 -46 127 -130 l0 -20 q-35 -39 -89 -130 q-60 -83 -222 -115 l-55 0 q-28 -15 -28 -30 q0 -60 83 -60 q271 -51 395 -160 q73 -72 77 -140 l-33 -15 q-322 105 -372 170 q-107 90 -139 90 l-111 -170 q-38 -37 -45 -60 l23 -15 q71 80 116 80 q125 0 173 -65 q27 -37 27 -55 l0 -20 l-11 -40 l17 -15 q118 65 244 65 q34 -4 34 -10 l5 5 q128 -22 128 -45 q0 -64 -128 -115 l-161 -10 l-33 0 q-150 -12 -150 -65 q-72 -131 -72 -150 l0 -5 q0 -19 211 -80 q261 -117 261 -205 l0 -10 q0 -25 -84 -25 l-11 0 q-72 0 -427 170 l-34 10 q-28 0 -100 -80 q-313 -185 -572 -185 q-89 0 -89 15 l0 10 q0 8 183 60 q198 83 339 210 l0 5 q-10 20 -39 20 q-101 0 -277 -75 q-37 0 -45 45 l28 85 l-17 15 l-83 -10 l-11 0 q-10 0 -84 80 q-37 21 -44 60 l17 10 q23 -20 44 -20 l378 60 q38 34 94 160 l11 50 q-18 13 -111 40 q-50 23 -50 55 q0 16 78 20 q39 18 39 30 l-6 20 q0 10 17 10 l22 -5 q65 29 139 245 l11 100 q0 58 -33 75 l-11 0 q-127 -50 -150 -50 l-6 0 l-11 10 q109 111 189 290 l11 90 q-25 99 -83 145 l0 10 l11 10 ZM421 1242 l11 0 q20 -19 156 -70 q78 -57 78 -105 q0 -49 -50 -55 l-78 0 l-39 -5 q-16 13 -28 90 q-57 72 -67 125 l17 20 ZM1171 1212 q-100 -79 -100 -115 l0 -5 q78 -54 78 -80 q0 -10 28 -30 q69 50 161 160 l0 5 q0 21 -167 65 ZM593 807 l6 0 q11 0 11 -15 l-17 -155 l0 -55 q10 -50 56 -50 l17 -25 q0 -40 -139 -40 l-28 0 q-106 0 -106 130 l-5 185 l5 5 l11 0 q26 -22 73 -100 l5 -5 l17 0 l94 125 ZM1016 302 l22 -10 q155 13 155 100 l12 65 q0 55 -45 55 l-22 0 q-84 0 -84 -60 q0 -55 -38 -150 ZM849 77 l5 -15 l12 0 l133 15 l33 -5 l22 0 q31 0 73 120 l-17 15 l-11 0 q-250 -78 -250 -130 Z" /><glyph glyph-name="" unicode="&#x5a07;" d="M1410 1513 q65 -17 65 -75 l0 -25 q0 -51 -110 -115 q-49 0 -70 -45 l10 -55 l-5 -55 l15 -10 l205 50 l65 0 q140 -22 140 -70 q0 -31 15 -70 q0 -40 -115 -40 q-95 35 -120 35 l-65 5 q-125 -18 -125 -50 q73 -48 245 -195 q105 -62 295 -115 q35 -23 70 -80 l0 -15 q-61 -85 -75 -85 q-125 0 -370 265 q-33 0 -55 -70 l15 -45 l0 -10 l-5 -50 l20 -15 l65 15 l25 0 q93 0 150 -125 l-30 -245 q-58 -270 -105 -270 q-25 9 -55 60 l0 15 q50 40 50 185 l15 120 q0 130 -35 130 l-10 0 q-80 0 -360 -135 q-105 -25 -105 -40 l15 -120 l-5 -105 l5 -30 q-33 -105 -60 -105 q-30 0 -55 110 q-25 237 -25 360 l25 10 q44 -40 60 -40 q8 40 40 40 q210 87 230 110 l0 10 l-40 45 l-5 0 q-15 -3 -15 -40 l-20 -15 l-15 0 q-34 0 -75 135 q-15 75 -25 75 l-10 0 q-198 -325 -295 -325 l-5 0 l-10 10 l0 10 q183 237 300 485 l-15 10 q-121 -85 -145 -85 q-105 -13 -105 -30 q-69 -111 -105 -285 q-40 -68 -40 -105 q0 -27 110 -110 q100 -111 115 -180 l0 -10 q0 -41 -85 -85 l-10 0 q-29 0 -105 45 q-25 8 -25 30 l5 80 q-29 95 -65 95 q-89 -147 -225 -295 q-228 -210 -310 -210 q-30 0 -70 45 l0 10 l65 30 q157 114 295 310 q65 70 125 215 q0 31 -105 70 q-120 -75 -225 -75 q-90 0 -150 -75 l-5 0 l0 35 q72 106 205 155 q85 59 85 100 q0 58 190 425 q80 204 80 285 l0 15 l-15 100 l20 10 q135 -71 135 -150 l5 -5 l0 -5 q-140 -272 -140 -335 q-24 -36 -105 -250 l5 -5 l15 0 q126 80 145 110 l0 15 q-45 49 -45 60 q0 81 55 100 l60 20 q25 0 100 -45 l5 0 q335 129 335 150 q35 65 35 85 q0 32 -190 40 q-50 5 -50 20 l0 5 q240 145 320 220 q63 55 160 55 ZM1155 828 l15 0 q39 8 140 75 l0 20 l-65 25 q-29 0 -90 -115 l0 -5 ZM1195 688 q25 -65 35 -65 l15 0 q0 27 25 95 l0 5 q0 10 -15 10 q-37 -13 -60 -45 ZM470 513 q0 -23 55 -35 l5 0 q23 0 60 120 l0 5 l-10 10 q-101 -73 -110 -100 ZM1365 358 q110 -27 110 -120 l-35 -85 l15 -45 l0 -50 q0 -56 -140 -85 l-35 30 l-5 0 q-8 0 -25 -50 l-15 -10 l-5 0 q-90 76 -90 195 q0 94 95 135 q90 85 130 85 ZM1225 118 l30 -85 l20 0 l0 55 l20 80 l-15 5 q-46 -22 -55 -50 l0 -5 Z" /><glyph glyph-name="" unicode="&#x5ac1;" d="M1250 1537 l5 0 q154 -22 220 -320 l15 -13 l199 84 l21 3 q46 -7 107 -171 l0 -33 q0 -59 -245 -133 q-51 7 -51 -87 q0 -40 -169 -266 l-10 -32 l0 -11 q0 -36 204 -90 l5 -6 q31 -4 31 96 l-15 113 l15 4 q41 -6 77 -166 l0 -12 q0 -34 -36 -100 q14 -43 102 -159 q41 -75 41 -139 q0 -65 -31 -79 l-10 2 q-39 5 -77 127 q-9 1 -40 83 l-16 2 q-15 -9 -51 -171 q-12 -9 -61 -147 q-88 -132 -169 -121 q-37 46 -71 127 l-5 6 l-5 0 l-72 -29 l-36 -6 l-10 13 q97 51 97 120 q-33 43 -46 45 l-25 -13 l-26 3 l-10 13 l0 16 q143 138 168 250 q46 90 46 154 l-10 13 l-10 1 q-140 -200 -204 -244 q-30 -18 -46 -16 l-5 7 l0 11 q108 118 204 327 q56 107 56 148 l-20 3 q-70 -57 -113 -51 l-15 2 q-15 6 -26 42 q0 26 118 62 q49 26 225 197 q59 -8 168 166 l-15 18 l0 6 q-247 -34 -450 -227 l-35 -23 l-11 1 q-25 19 -25 37 l-15 2 l-6 -5 l-5 1 l5 -84 l0 -217 l6 -34 q-18 -75 -36 -73 l-16 2 q-92 76 -92 191 l-5 6 l-10 2 q-72 -101 -87 -261 q-51 -136 -51 -160 l0 -16 l133 -174 q72 -131 82 -206 q-44 -77 -82 -72 l-10 2 q-123 53 -123 116 l16 65 l0 11 q-5 41 -57 119 l-15 2 q-8 1 -71 -118 q-137 -207 -368 -349 l-21 3 q-74 10 -107 65 q0 27 56 20 q126 63 261 269 l97 153 l46 111 q0 42 -97 96 q-132 -54 -154 -51 l-56 8 q-76 10 -143 -53 l-5 1 l0 6 q0 91 215 187 q61 39 61 125 q20 66 133 298 q87 246 122 422 q-5 76 -20 137 l15 9 l5 -1 q123 -109 123 -200 l-225 -631 l16 -13 l5 -1 q123 72 132 110 l-46 84 q9 116 72 107 q0 10 26 8 l20 -3 q28 -4 92 -85 q58 -8 66 19 l0 50 q0 46 -41 155 l6 5 l5 -1 q30 -4 107 -92 q8 -1 15 26 l-5 22 l0 6 l10 10 l11 -2 q16 -35 40 -39 q50 -6 200 73 l0 11 l-11 13 l-66 9 q-82 28 -82 39 l0 11 q118 78 118 128 q0 67 -92 157 l0 17 q0 16 51 15 ZM611 502 l0 -16 q21 -36 52 -41 q26 -3 56 115 l0 17 l-16 2 l-92 -77 ZM1429 462 l0 -22 l20 -47 q-54 -221 -71 -218 q-37 -90 -108 -191 q0 -29 51 -40 l11 -2 q77 -10 133 149 l10 65 l0 67 l-5 106 l35 78 q-18 47 -66 54 l-10 1 ZM1214 53 l10 -13 l11 -1 q102 163 102 225 l-10 1 q-113 -117 -113 -212 Z" /><glyph glyph-name="" unicode="&#x5b50;" d="M1357 1365 q25 -9 55 -73 q52 -46 78 -152 q0 -56 -110 -156 l-189 -211 l-9 -19 q9 -29 51 -29 l37 0 q144 44 271 44 l18 -5 l28 5 q207 -49 207 -137 l18 -98 q0 -42 -198 -49 q-178 68 -280 68 l-23 -4 l-51 0 l-23 -25 q11 -269 19 -269 q0 -410 -106 -449 q-60 -54 -216 -54 l-50 -15 l-23 0 l-88 20 l0 10 q230 196 230 263 q97 131 97 328 l0 73 q-8 64 -42 64 l-193 -64 q-116 -62 -230 -107 q0 -12 -41 -15 q-91 18 -244 122 q-64 46 -64 59 l14 5 l106 -15 l27 0 q80 0 221 59 q264 94 266 102 l0 20 q-78 37 -78 88 q0 18 87 24 q98 20 240 220 q29 36 32 64 l-19 0 q-150 -117 -257 -117 l-28 0 q-59 0 -266 78 l0 15 q51 31 225 102 l133 64 q126 96 313 151 q0 7 55 15 ZM975 671 l0 -15 l5 0 q64 0 64 20 l0 9 l-23 20 q-31 -11 -46 -34 Z" /><glyph glyph-name="" unicode="&#x5b66;" d="M1441 1537 l29 0 q67 0 98 -73 q-78 -111 -78 -315 l0 -123 q0 -17 19 -32 l49 14 l53 -19 q71 28 107 28 l20 0 q126 0 199 -160 q0 -49 -112 -64 q-31 -14 -321 -68 l-19 4 l-15 -18 l15 -37 q0 -35 -107 -105 l-151 -123 l0 -9 q35 -41 64 -41 q97 36 184 36 q111 -37 214 -109 q20 -31 34 -110 q-7 -23 -34 -23 l-44 0 q-45 0 -150 55 l-49 14 q-170 0 -170 -32 q29 -155 29 -265 q-17 -186 -97 -186 q-33 -24 -297 -42 q-97 10 -97 28 q0 12 88 23 q158 87 243 227 l0 28 q-20 162 -29 169 l-5 4 l-5 0 q-158 -54 -350 -105 l-5 0 q-28 0 -175 73 q-68 52 -68 78 l15 4 l82 -13 l49 0 q73 0 296 59 q146 28 146 55 l0 4 q0 14 -29 28 l-88 -23 q-52 12 -92 59 l20 19 l14 -5 q111 0 209 96 q54 41 54 59 l-5 0 l-5 5 l-5 0 q-109 -55 -238 -55 q-145 18 -243 50 l-5 5 l0 9 q0 10 185 59 l29 37 l10 0 l29 -14 q189 49 189 87 q46 55 68 55 l0 18 q-82 0 -184 -46 l-258 -100 l-44 -5 q-38 0 -73 92 l0 31 q10 42 25 42 l14 -5 q39 30 39 114 l0 91 q0 115 -44 215 q-34 91 -34 123 l0 14 l10 9 q141 -136 141 -160 l5 -18 l24 0 l59 155 q22 23 72 23 l30 0 q43 -35 43 -100 l0 -32 l10 -9 l15 0 l24 91 l-20 36 q0 45 137 60 l19 4 l29 0 l88 -32 l-15 -82 q3 -14 20 -18 l72 14 l30 -5 q24 0 24 105 q0 18 -24 32 l-20 0 l-73 -27 q41 52 107 68 ZM838 1149 l0 -59 q-24 -45 -24 -101 l-10 -73 q7 -59 25 -59 l29 0 q24 0 29 14 l0 9 l-49 64 q0 22 93 141 q19 27 19 123 q-7 183 -43 183 q-34 0 -69 -242 ZM1067 1144 l5 -4 l14 0 q0 17 127 224 q-7 22 -34 22 l-5 0 q-97 0 -97 -118 l-10 -124 ZM1383 1222 l0 -9 l19 -18 l20 18 l0 9 l-5 23 l-15 0 l-19 -23 ZM1388 1076 q0 -8 -63 -23 l0 -14 q0 -12 72 -27 q20 5 20 27 l0 10 q0 27 -29 27 ZM1013 939 q0 -34 30 -50 q21 10 102 23 l5 18 q-33 59 -78 59 q-19 0 -25 28 l-9 0 q-19 -9 -25 -78 ZM1295 976 l0 -10 l10 -9 l5 0 l10 9 l0 5 l-10 9 l-15 -4 ZM1436 802 q0 -7 20 -14 q83 32 180 115 q-7 21 -20 22 q-107 0 -107 -45 q0 -40 -73 -64 l0 -14 ZM1339 884 l0 -13 l10 -10 l53 0 l15 14 q0 14 -29 28 l-49 -19 ZM420 889 q159 -60 195 -119 l0 -9 q-24 -63 -24 -91 l0 -64 l14 -55 l-14 -41 l4 -50 q-23 -73 -77 -73 q-151 57 -151 141 l0 5 q0 39 87 123 l30 119 q0 10 -78 105 l0 4 l5 5 l9 0 Z" /><glyph glyph-name="" unicode="&#x5bcc;" d="M1035 1545 q170 0 300 -204 q33 -91 33 -129 l-6 -26 l17 -15 l356 75 q90 -42 139 -159 l11 -44 q0 -68 -150 -85 q-217 -45 -217 -70 q0 -51 -228 -109 l-244 -25 l-128 4 l-11 0 q-25 0 -100 56 q-34 0 -45 -110 q-13 -67 -72 -120 l-33 -30 l-6 0 q-48 0 -122 110 q-17 42 -17 80 q0 39 72 129 l28 145 l-78 119 l0 10 q6 14 34 14 q59 -47 155 -104 l6 0 q11 0 28 60 l5 5 l11 0 l39 -60 l11 0 l0 -5 q68 0 339 60 l0 25 l-27 0 q-100 0 -234 60 l0 15 l134 54 q66 39 66 75 q0 50 -133 170 l0 4 q0 17 67 25 ZM1518 1132 l-39 5 q-316 -35 -389 -90 q-44 -14 -217 -105 q-83 -19 -83 -34 l0 -15 q0 -11 94 -35 q109 0 428 105 q137 0 284 124 q22 21 22 40 q0 13 -22 15 l-78 -10 ZM1346 764 q134 0 167 -45 q0 -57 -134 -174 l0 -16 q70 0 106 -74 q139 -34 211 -120 l11 -29 q-27 -89 -139 -338 l17 -60 q-59 -65 -128 -89 l-50 0 q-31 0 -133 59 l-17 6 q-156 -33 -234 -65 l-72 0 q-50 -46 -61 -46 q-93 0 -106 219 l-5 169 q14 149 61 149 q64 -35 100 -35 q121 6 145 41 l0 4 q-7 11 -134 50 q-44 30 -44 110 q-31 77 -95 139 l0 5 l11 10 q110 0 228 -169 l22 -5 q93 0 173 164 l0 10 q0 8 -22 15 q-91 -30 -189 -30 q-51 3 -51 15 l0 5 q0 17 334 119 l28 6 ZM1129 400 q12 -59 22 -59 l6 0 q142 48 178 74 l0 20 l-78 0 q-102 0 -128 -35 ZM1218 206 l0 -5 l22 -20 l6 0 l155 50 l45 -5 l11 15 l0 44 q0 13 -22 15 l0 6 q-83 -35 -206 -70 l-11 -30 ZM934 191 q7 -110 45 -110 l5 0 q106 0 106 100 l0 10 l-17 20 l-77 -5 l-39 5 q-19 -5 -23 -20 ZM1262 52 q65 -50 112 -50 q26 0 50 99 q-6 21 -28 21 q-134 -43 -134 -70 ZM957 17 q13 -114 39 -114 q105 16 105 40 q-14 94 -72 94 l-33 0 q-30 0 -39 -20 Z" /><glyph glyph-name="" unicode="&#x5bd2;" d="M1392 1537 l19 0 q50 0 123 -60 q109 -86 112 -160 q4 -88 -76 -125 q-320 -55 -338 -70 l-9 -15 l1 -15 q140 -12 141 -55 q-3 -90 -82 -90 q-37 -15 -100 -20 l-18 -25 l0 -5 l20 -20 l15 0 q134 0 136 -40 q-5 -95 -59 -95 q-99 -22 -99 -35 l15 -15 q143 35 200 35 l29 0 q40 0 113 -60 q16 -41 18 -85 q-17 -22 -80 -35 l-101 5 l-48 0 l-9 -10 l0 -10 q262 -140 366 -140 q271 -56 272 -85 l11 -30 q2 -44 -69 -55 q-31 -68 -54 -85 l-24 -5 q-308 28 -310 75 q-11 0 -283 220 q-52 38 -110 105 l-25 10 q-157 -17 -218 -60 q-32 -29 -29 -90 q1 -36 253 -85 q108 -57 111 -125 l0 -10 q1 -31 -97 -90 q-22 -44 -79 -65 l-4 -20 q3 -49 209 -165 q40 -44 53 -120 q-8 -22 -27 -35 l-19 0 q-128 65 -217 140 q-101 116 -103 165 l-7 35 l-1 30 q-1 32 50 55 q21 27 31 70 q-1 21 -75 75 l-91 95 q-29 0 -44 -85 q-241 -330 -341 -330 q-19 -15 -81 -15 q-88 50 -90 95 l-1 20 l18 20 l24 -5 q153 0 334 265 q15 10 55 75 l-1 15 l-9 0 l-1 5 q-148 -70 -179 -70 q-83 9 -249 100 l-5 5 l0 10 l9 10 l19 0 q243 55 351 95 q-1 22 59 80 l4 20 l-5 120 q-2 35 -31 35 l-62 -10 l-38 0 q-231 23 -232 45 l0 5 q-1 8 33 15 l-1 15 q-60 50 -61 75 l22 170 q-2 46 -68 115 l0 15 q246 -38 250 -135 l2 -45 q3 -78 -40 -175 l0 -5 q0 -15 20 -15 q193 55 203 75 l-1 10 q-5 118 -69 160 l0 10 l-34 -5 q-50 0 -96 110 l-6 45 l4 5 l10 0 l31 -65 q25 -25 45 -25 q271 55 267 150 l-114 65 q-74 60 -75 75 l0 5 l9 15 l24 -5 l24 0 l244 25 q18 0 137 -70 q231 72 299 80 ZM1134 1287 l1 -25 l34 -5 l33 0 q78 0 159 100 l0 10 l-5 5 l0 5 q-196 -33 -195 -45 q2 -45 -27 -45 ZM900 1142 l-43 5 l-48 -5 l1 -20 l20 -25 l2 -35 l-2 -60 l19 -10 l204 65 l9 15 q-1 15 -49 15 l-5 5 l0 10 q60 47 59 65 l-1 35 l-15 15 l-10 0 q-36 -37 -141 -75 ZM665 1157 l-5 5 l-24 0 l1 -25 l14 0 l14 10 l82 0 q24 0 28 15 q-11 18 -30 25 q-66 -10 -80 -30 ZM842 827 q0 -7 20 -15 q92 20 132 45 l24 -5 q20 0 33 25 q-1 27 -21 35 l-9 0 q-181 -44 -179 -80 l0 -5 ZM887 672 l1 -25 l24 5 l9 0 q140 0 138 30 l5 5 q-12 31 -26 35 l-151 -50 Z" /><glyph glyph-name="" unicode="&#x5c0a;" d="M1276 40 q1 -17 1 -33 l0 -48 q-21 -180 -71 -230 q-80 -54 -148 -54 l-30 0 q-144 0 -367 159 l-12 21 l0 46 q0 103 202 142 l23 0 q101 0 148 -100 l0 -4 q-44 -69 -100 -69 l-18 0 q-26 0 -107 42 l-41 0 l-30 -26 q0 -52 201 -94 l83 0 q101 0 101 99 q6 0 17 142 l148 7 ZM1121 -61 q3 47 7 109 q0 14 -30 26 l-178 -16 q-266 37 -266 63 q0 23 338 58 q118 25 118 42 l0 21 q-2 16 -95 37 q-121 116 -177 116 l-24 0 q-24 -11 -24 -26 l-6 0 l6 -6 l0 -31 l-29 -26 l-6 0 q-94 13 -154 74 q-54 68 -54 131 q0 182 101 305 l0 21 l-12 0 q-109 -42 -160 -42 l-29 0 q-89 21 -89 79 l0 11 q0 75 225 100 q166 39 166 68 q0 80 -89 105 l-18 16 l0 16 l24 90 q13 0 24 52 q0 31 -42 105 l6 6 q103 -80 136 -80 l6 0 q179 174 326 174 l6 0 l12 -10 q-8 -10 -143 -59 q-118 -97 -118 -163 l18 -46 q-30 -15 -30 -48 l6 -37 q-77 -52 -77 -63 q13 -42 36 -42 q160 95 160 131 l-48 147 l18 11 q63 0 112 -78 l18 -17 l18 0 q118 122 118 184 q0 35 -53 80 l12 10 l12 0 q118 0 118 -126 q0 -75 -112 -206 q-24 -2 -24 -15 l0 -6 q0 -11 83 -15 q83 -11 83 -31 l0 -6 q0 -60 -172 -90 q-59 -21 -83 -47 l6 -5 l0 -42 l-6 -53 q0 -19 190 -31 q213 -130 213 -279 l0 -11 q0 -180 -207 -253 l0 -25 q238 -38 325 -79 l18 -42 l0 -6 q0 -29 -237 -42 q-142 -24 -142 -48 q14 -72 17 -134 l-148 -6 ZM891 921 l0 -5 q0 -63 47 -63 q71 13 71 37 l0 21 l6 52 l-35 11 q-67 -21 -89 -53 ZM725 779 l18 -10 l6 0 q47 24 47 52 q-9 22 -18 22 l-11 0 q-15 0 -42 -64 ZM1021 753 l6 -5 l12 -11 l0 -5 l136 26 q24 -8 24 -15 q0 -64 -332 -132 l0 -5 l-100 5 l-54 0 q-32 0 -41 -21 l0 -10 q0 -31 41 -48 q148 11 148 48 l6 0 l30 -21 q199 68 308 88 q41 0 41 -36 q0 -25 -177 -58 q-137 -37 -137 -52 q13 -53 54 -53 l290 53 l18 0 q21 9 29 31 q0 206 -142 274 l-65 15 l-24 0 l-71 -68 ZM737 674 l0 -6 l12 -10 l12 0 q94 14 94 31 q0 38 -41 38 q-53 -23 -77 -53 ZM755 490 l-18 -16 q39 -52 65 -52 q65 6 65 26 l0 5 q0 26 -29 42 l-6 -5 l-77 0 ZM1163 401 q0 -12 36 -32 q26 9 41 32 l0 4 l-18 17 l-35 0 l-24 -21 Z" /><glyph glyph-name="" unicode="&#x5c0f;" d="M927 1465 l30 -5 l40 5 q95 -62 95 -145 q15 0 20 -230 l0 -45 l-10 -455 q5 -237 20 -330 q0 -77 -130 -180 l-20 -5 l0 5 l-30 -10 l-5 0 l-165 195 q-43 42 -105 70 l-25 20 q-13 0 -60 -90 q-47 -60 -90 -60 l-5 0 q-103 0 -140 300 q9 107 25 110 l10 0 l95 -175 l20 -20 l15 0 q148 162 185 175 l5 -5 l0 -5 l-60 -170 q9 -40 185 -40 q115 15 115 40 l5 460 l-5 25 l5 50 l0 155 q-48 225 -80 225 q0 10 -35 15 l-5 -5 l-5 0 q-19 3 -90 60 l0 10 q35 23 175 50 l20 5 ZM1157 780 q386 0 530 -150 q10 -13 15 -100 q-15 -100 -50 -100 l-5 0 q-118 23 -135 55 l-175 45 l-5 5 l0 15 q30 32 30 55 q-5 25 -200 140 l-15 15 l0 10 l10 10 Z" /><glyph glyph-name="" unicode="&#x5c11;" d="M949 1537 q54 -71 153 -71 q168 -32 168 -137 l5 -32 l-26 -88 l16 -11 l10 0 q157 0 157 88 l-5 16 q0 33 41 33 q132 -46 132 -82 l56 -82 q-14 -71 -107 -71 q-134 0 -264 -453 q-66 -143 -188 -350 q-31 -83 -158 -208 q-354 -344 -594 -425 q-112 -50 -158 -50 l-5 6 l0 5 l437 421 q0 11 239 256 q274 350 325 481 q45 34 132 251 q11 0 11 55 q0 12 -26 16 q-96 -50 -96 -142 q-11 0 -26 -153 l0 -21 q-56 -55 -86 -55 q-37 0 -76 180 l0 11 l10 11 l30 -5 l21 21 l0 44 q0 31 -26 38 q-106 -60 -178 -125 q-68 -33 -127 -137 q-10 0 -66 -60 q-44 -38 -102 -38 q-71 0 -71 115 l0 27 q0 82 92 202 q0 52 168 131 l5 0 l0 -22 l-5 -38 l20 -16 q287 71 300 87 l15 49 q0 13 -122 153 q-46 124 -46 164 l15 11 Z" /><glyph glyph-name="" unicode="&#x5c3d;" d="M785 1525 l5 0 q79 -47 200 -86 q115 -79 115 -134 l20 -15 l135 29 q176 0 220 -53 q23 -81 40 -81 l175 38 q156 0 230 -77 l0 -9 q-63 -48 -100 -48 l-15 0 l-95 14 l-75 0 l-200 -28 l-80 -115 l-5 -5 l10 -43 l0 -5 q0 -17 -95 -39 l0 -19 l20 0 l80 10 l20 0 q53 0 85 -48 l0 -29 q0 -28 -315 -91 q-35 -24 -35 -48 q5 -19 25 -19 q95 58 130 58 l45 0 q67 -18 100 -72 l20 -58 q0 -69 -120 -100 q-29 -28 -150 -87 l0 -9 l5 0 l195 52 l5 0 q105 -19 185 -76 q15 0 35 -29 l0 -19 q0 -49 -130 -163 l-80 -77 q0 -32 150 -47 l45 -43 l0 -10 q-5 -72 -40 -72 q-131 5 -255 24 q-241 0 -620 -120 l-195 -48 l-25 0 q-60 0 -80 144 l5 5 l10 0 q55 -72 70 -72 q83 0 300 77 l0 19 q-170 110 -170 186 l0 34 l5 67 q-55 71 -55 105 q0 58 90 183 l-130 24 q-122 62 -130 110 l15 5 q88 -44 140 -44 q95 0 225 72 l105 77 l-10 10 l-95 -20 q-141 0 -260 67 l-5 5 l0 5 l10 10 l20 0 q116 0 265 67 q165 36 165 86 q-10 19 -25 19 q-181 -66 -480 -139 q-19 -19 -100 -29 q-90 13 -90 63 l0 28 q0 66 90 130 l5 0 l10 -10 l-20 -81 l0 -5 l15 -14 q53 0 325 72 q232 52 250 71 l5 15 q0 100 -35 100 q-127 0 -310 159 l5 4 l0 5 q151 -67 295 -67 q20 5 20 29 q-110 96 -110 148 l-20 67 l15 10 ZM1110 1137 q0 -26 25 -38 q100 11 100 38 q-4 33 -30 33 q-95 0 -95 -33 ZM1125 1003 l15 -19 q35 10 35 19 l0 9 l-10 10 l-20 0 l-20 -19 ZM1125 821 l0 -10 l20 -19 q50 15 50 24 l0 19 l-45 10 l-25 -24 ZM875 720 l0 -34 l15 -4 q37 9 50 33 l0 19 l-20 19 l-5 0 q-29 -16 -40 -33 ZM805 533 l15 -14 l60 4 l30 0 q30 17 30 58 l-25 14 q-110 -31 -110 -62 ZM735 308 q4 -15 20 -19 q75 29 140 72 l0 19 l-115 19 q-35 0 -45 -91 ZM690 202 q14 -33 55 -33 l325 139 l0 9 l-5 -4 l-15 4 q-360 -46 -360 -115 ZM1220 274 q23 -72 30 -72 l15 0 l30 91 l-15 10 l-5 0 q-55 -14 -55 -29 ZM1005 145 l0 -19 l40 -67 l15 -5 q115 122 115 182 l-15 14 l-10 0 l-145 -105 ZM790 63 l0 -9 q105 -72 105 -115 l30 -9 q20 9 20 24 q-22 148 -45 148 q-110 -26 -110 -39 Z" /><glyph glyph-name="" unicode="&#x5c71;" d="M859 1311 l50 -109 q31 -29 155 -78 q105 -55 105 -104 q40 -90 40 -247 l0 -5 q0 -134 -25 -247 q5 -17 30 -17 q64 0 75 95 q0 26 20 26 l70 -52 l80 -26 q20 18 20 35 l0 60 l-5 57 l5 17 l-15 122 l0 17 l5 5 q-41 160 -120 204 l-75 39 l0 4 l15 13 l55 0 q124 0 260 -91 q88 -113 115 -230 l45 -235 l5 -4 l0 -4 l-5 -35 l5 -87 l0 -39 q0 -121 -65 -152 l-5 0 l-70 22 l-50 -31 q-205 0 -205 26 q0 15 45 70 q-4 13 -20 17 q-71 -43 -140 -43 q-103 -44 -285 -104 q-66 -30 -255 -78 q-259 -122 -330 -122 q-33 0 -205 100 l-5 13 q0 72 75 152 q76 35 90 74 q76 128 85 238 l0 31 q0 15 -50 108 l5 5 l10 0 l215 -178 l10 -26 q-35 -72 -45 -122 q-52 -42 -65 -100 l20 -17 q157 39 360 126 q95 28 95 60 l-20 44 l5 69 l0 9 l-15 74 l10 147 q0 119 -65 213 q-37 69 -60 139 l-10 83 l0 17 q0 52 30 52 Z" /><glyph glyph-name="" unicode="&#x5cb8;" d="M984 1537 q25 -48 110 -75 q75 -37 75 -115 l5 -25 l-10 -170 l15 -10 q30 0 50 55 l5 5 l5 0 q59 -35 75 -35 l15 20 q0 212 -80 245 l-15 15 l0 5 l5 5 l0 5 q156 0 205 -125 q55 -93 55 -195 q0 -130 -65 -130 l-20 5 l-35 -10 l-95 5 l-10 15 l15 20 l0 5 l-25 5 l-375 -125 l-170 -45 q-115 36 -115 65 q0 37 95 135 q32 49 35 90 l-10 60 l5 5 l15 0 q68 -46 95 -80 l0 -30 l-55 -90 l20 -15 q206 60 240 85 l5 5 l0 5 l-10 40 l0 130 l-5 50 l5 0 q-65 118 -65 140 l0 45 l10 10 ZM1394 972 q90 0 120 -135 l0 -15 q0 -56 -195 -95 q-87 -20 -185 -60 q-44 -14 -170 -95 l-5 0 l0 -25 l440 100 l40 5 q135 -15 135 -70 l0 -15 q0 -20 -70 -40 l0 -25 l205 -60 l20 -40 q-30 -30 -90 -30 q-86 -44 -240 -95 l-15 -30 q35 -225 35 -415 l0 -90 q0 -119 -50 -140 l-45 -5 l-60 0 q-195 32 -195 70 l20 20 l5 0 q145 0 145 60 l0 70 l15 320 q-5 75 -25 75 l-5 0 q-166 -60 -200 -60 l-10 0 l-115 25 q-70 -42 -185 -225 q-68 -88 -135 -200 l-20 -15 q-56 0 -110 130 l0 85 q0 41 100 155 l195 405 q0 10 -15 10 l-120 -25 q-110 0 -145 90 l-10 45 l0 5 q0 146 100 245 l20 5 l5 -5 l0 -20 q-35 -108 -35 -135 l0 -30 q10 -20 25 -20 q169 0 705 255 q56 40 120 40 ZM699 137 l5 -5 l15 0 l230 220 l10 0 l10 -15 l0 -25 q0 -25 -45 -85 l0 -10 l15 -15 q44 0 235 90 q95 19 95 95 l5 100 q0 15 -15 15 l-5 5 l0 5 q-121 -40 -165 -40 l-185 45 q-49 -8 -150 -220 q0 -25 -50 -135 l-5 -25 ZM1384 422 l0 -10 q0 -15 20 -15 q55 10 55 50 l-45 55 l-10 0 q-17 0 -20 -80 Z" /><glyph glyph-name="" unicode="&#x5dfe;" d="M972 1537 l205 -65 l5 -5 l0 -5 q-15 -21 -15 -40 l10 -30 l0 -30 q-30 -164 -30 -220 l0 -10 q10 -20 25 -20 q116 52 205 55 l10 0 q183 0 215 -355 q0 -145 -80 -295 q-88 -120 -185 -120 l-25 0 q-82 0 -145 70 l-20 0 l-10 -50 l0 -60 l5 -60 l-5 -50 l10 -100 q-39 -156 -80 -215 l-190 -205 l-5 0 l-15 15 l25 210 l-5 25 l25 285 l-10 135 l5 40 l-5 115 l5 65 l-5 175 l0 70 q-5 15 -30 15 q-115 -8 -115 -30 q0 -37 35 -145 q0 -145 -45 -145 l-65 -20 l-20 0 q-140 50 -140 160 l0 10 q21 131 145 270 q91 143 165 205 l5 0 l10 -10 l0 -10 q-74 -99 -95 -190 q0 -13 25 -25 q56 0 130 60 l-5 50 l0 70 q-18 150 -60 150 l-5 5 l0 5 l5 165 q71 70 140 85 ZM1137 787 l0 -50 q0 -90 110 -90 l20 -5 q115 0 115 135 l10 55 q-5 195 -40 195 q0 16 -25 30 l-5 0 q-21 0 -85 -70 l-90 -60 l-10 -140 Z" /><glyph glyph-name="" unicode="&#x5e74;" d="M1388 1537 l25 0 q184 -21 182 -65 q0 -11 -42 -50 q-8 -45 -21 -45 l-120 0 l-70 5 q-101 -12 -101 -25 l-1 -15 q39 -22 36 -100 l-1 -40 q-1 -15 19 -15 l0 -5 l95 10 q85 0 203 -60 l-1 -15 q-1 -15 -46 -15 l-10 -15 l0 -5 l28 -30 l0 -10 q0 -12 -41 -25 l-259 15 q-16 -15 -17 -35 l-5 0 q12 -24 23 -170 q12 -30 181 -100 q187 -40 307 -95 q42 -54 41 -95 l-1 -15 q0 -15 -66 -30 q-43 0 -271 90 l-15 0 q-150 0 -152 -40 l23 -430 q-15 -353 -170 -485 l-10 0 q-10 0 -16 90 q-65 259 -55 495 q-9 250 -20 250 l-10 0 l0 5 q-327 -96 -431 -145 q-11 -19 -82 -45 q-44 -42 -87 -45 l-10 0 q-97 0 -184 135 l0 15 q3 64 39 85 l10 0 l55 -10 q115 0 524 120 q81 23 82 45 l1 10 q0 21 -144 30 q0 8 -85 10 l-35 0 l-9 10 q0 8 92 65 l11 30 l1 5 q-92 78 -92 90 q1 15 -29 30 l-105 -15 q-135 10 -132 80 l-4 20 q13 30 36 30 q-2 -60 33 -60 q45 0 196 40 l329 95 q21 7 31 25 l0 5 q-45 105 -45 125 l12 50 q2 31 -103 45 q-259 -165 -332 -170 q-64 -20 -121 -20 l-5 0 l-9 10 l0 5 q6 12 123 70 l185 130 q27 40 27 55 l1 5 l-27 85 l0 5 l11 15 q229 -10 258 -40 q88 -35 129 -35 q54 0 172 65 q34 15 71 15 ZM889 942 q-1 -22 139 -145 l10 0 l16 15 l-4 35 l1 25 l6 30 q-8 85 -36 85 q-131 -29 -132 -45 Z" /><glyph glyph-name="" unicode="&#x5e94;" d="M892 1537 q111 0 365 -85 q55 -37 75 -70 l0 -5 q0 -33 -35 -65 l0 -10 l10 -10 l180 75 l30 10 l5 0 q130 -20 130 -110 q20 -8 20 -35 q-207 -100 -315 -100 l-35 0 q-16 0 -20 -70 l-75 -100 l0 -5 l10 -10 l5 0 q174 55 225 55 q48 0 75 -40 l0 -10 q0 -21 -30 -75 l15 -10 q82 40 105 40 l35 0 q20 -10 20 -25 q-39 -100 -150 -100 q-90 -14 -90 -35 q0 -18 20 -40 l85 5 l20 0 q20 -10 20 -25 q-19 -60 -55 -60 q-50 -19 -50 -30 l0 -20 l10 -15 l95 5 q60 0 60 -35 q0 -48 -80 -65 q-86 0 -100 -60 l15 -15 l160 25 l100 0 q27 0 35 -20 l0 -10 q0 -39 -60 -70 l-160 15 q-135 0 -200 -85 q-21 -20 -50 -20 l-5 5 l0 15 l10 15 l-10 15 q-138 -25 -185 -80 q-63 -95 -100 -95 l-15 0 l0 -5 q121 -175 550 -175 q93 0 105 25 q-44 109 -135 175 q-30 4 -30 10 q-28 0 -100 -100 l-55 -20 q-110 17 -110 85 q0 105 145 105 l70 -10 q207 90 295 90 q175 0 175 -65 q-28 -30 -60 -30 q-68 0 -180 30 q-135 -28 -135 -45 l0 -5 q7 -10 100 -40 q92 -62 270 -160 l10 -15 l0 -20 q0 -89 -300 -105 l-115 0 l-65 10 l-25 -5 q-150 22 -290 90 q-84 32 -140 120 l-65 75 l0 15 q0 15 35 15 l-25 90 l30 350 l0 55 q0 8 -20 15 l-180 -120 l-5 -20 l20 -100 q0 -156 -220 -415 q-131 -124 -305 -155 l-50 0 q-26 0 -30 15 l0 5 q6 14 110 65 q145 98 220 355 q80 191 80 240 l15 70 l-5 5 q25 193 25 375 l0 40 q0 24 -80 95 q-40 51 -40 120 l20 10 q119 -65 175 -65 q0 -25 130 -35 q105 0 440 120 l15 25 q-21 7 -30 25 l-45 -15 l-145 5 l-20 0 l-105 -15 q-55 4 -55 15 l0 5 l105 80 l5 25 q-37 55 -110 90 l-5 5 l0 10 l20 20 ZM752 1052 q20 -51 30 -150 q25 -14 25 -30 q-25 -19 -35 -145 l0 -20 q13 -60 25 -60 q131 106 290 315 l20 50 q0 21 -90 40 l-75 -25 l-60 10 l-5 -5 l-5 0 l-100 40 q-16 -5 -20 -20 ZM1162 887 l-105 -115 l0 -10 l15 -15 l55 0 q74 0 150 100 q0 28 -115 40 ZM1132 692 q25 -71 50 -80 q95 8 95 45 q0 43 -30 65 q-115 -10 -115 -30 ZM1132 487 q0 -28 25 -35 q180 30 180 60 q-10 35 -30 55 q-170 -22 -170 -35 l-5 -5 l0 -40 ZM1132 397 l-20 -20 l5 -5 l0 -50 l25 -25 q205 53 205 70 l0 10 l5 0 q-9 40 -30 40 q-110 -20 -190 -20 ZM867 132 l10 -10 l0 -5 q-35 -90 -35 -110 q0 -55 50 -115 l0 -25 q0 -18 -65 -35 q-70 20 -70 85 l0 15 q12 94 110 200 Z" /><glyph glyph-name="" unicode="&#x5f31;" d="M1518 1537 q160 -22 160 -140 q0 -50 -55 -195 q0 -27 -40 -80 l-15 -30 q0 -12 50 -45 q25 -32 25 -50 l0 -5 q-20 -129 -80 -200 q-22 -39 -105 -115 l0 -5 l15 -15 l45 15 q123 -55 195 -225 l10 -60 q0 -180 -110 -555 q-84 -92 -115 -105 l-15 0 q-19 0 -90 195 q-14 0 -25 75 q0 53 130 250 q60 102 60 205 q0 44 -30 60 l-25 0 q-93 0 -130 -50 q-111 -70 -165 -70 q-60 35 -60 105 q-35 30 -35 70 l0 5 q0 87 200 215 q50 35 50 55 l-5 0 q-54 -27 -165 -55 l-55 0 q-43 0 -65 70 q18 102 65 155 l250 185 q105 90 105 125 l0 5 l-15 15 l-25 0 q-67 0 -290 80 l0 15 q0 16 130 35 l195 65 l30 0 ZM793 1437 q133 -8 140 -70 l5 -25 q0 -45 -55 -205 q0 -16 -50 -100 q0 -14 55 -35 q15 -18 15 -35 q0 -80 -100 -260 q-24 -17 -75 -85 l0 -5 l10 -10 l5 0 l35 25 l15 0 q190 -71 190 -210 l0 -35 q0 -121 -115 -505 q-44 -67 -120 -135 l-10 0 l-105 185 l-15 0 q-90 -139 -90 -240 q-27 -34 -100 -60 l-30 -5 l-15 0 q-33 0 -45 135 q0 40 105 135 q85 102 85 235 l0 15 q-10 125 -55 125 l-5 0 q-34 0 -45 -80 l-5 0 l-15 15 l0 10 l15 80 l-40 105 l0 15 q0 61 85 150 q110 118 110 130 l0 5 q-113 -63 -180 -80 l-5 0 q-28 0 -50 35 l0 10 q0 125 135 225 q275 284 275 315 l5 15 l0 5 l-10 10 q-90 -25 -160 -25 l-155 5 l-5 5 l0 15 l155 85 q179 115 215 115 ZM613 362 q23 -44 40 -115 l15 -10 q10 0 60 85 l20 10 l5 -5 l0 -5 q-37 -83 -70 -200 l5 0 q140 196 140 300 q0 48 -40 65 q-175 -77 -175 -125 ZM1098 392 q180 -39 180 -90 q40 -61 40 -80 l0 -15 q0 -34 -145 -185 q-15 -18 -15 -35 q0 -21 205 -125 l5 -25 l0 -30 q-4 -17 -55 -35 q-11 -31 -25 -35 q-205 77 -205 205 l0 60 q0 62 85 240 l5 25 q0 71 -90 105 l0 10 q0 10 15 10 Z" /><glyph glyph-name="" unicode="&#x5f3a;" d="M1460 1537 l6 0 q78 0 160 -74 l11 -26 q0 -72 -188 -206 q-33 -14 -33 -43 q25 -21 66 -21 q39 -37 39 -58 l0 -11 q0 -44 -66 -58 l-22 6 q-72 0 -72 -37 q33 -47 39 -96 l16 -10 l6 0 q49 33 83 42 q171 -20 171 -143 q-35 -74 -232 -264 l0 -21 l33 -5 l39 26 q7 0 33 -42 q114 -35 193 -132 q110 -106 110 -249 l0 -37 q0 -88 -50 -111 q-121 85 -204 201 q0 17 -66 100 l-27 53 l-17 0 q-10 0 -22 -69 l-188 -206 l-55 -73 q-38 -85 -60 -85 q-61 14 -144 132 l0 16 q0 42 94 254 l11 42 l-22 16 l-28 -6 q-66 17 -66 74 l0 6 q0 30 39 100 l-17 11 l-11 0 q-149 -69 -198 -217 q-33 -111 -67 -317 q-44 -194 -104 -227 q-28 -37 -44 -37 q-29 0 -89 174 q0 97 94 243 q61 88 61 153 l0 69 q-12 21 -28 21 l0 6 q-102 -43 -270 -164 l-6 0 q-43 0 -71 90 l-11 10 l0 11 q0 96 193 269 l0 6 l-11 0 q-107 -67 -171 -74 q-32 0 -50 47 q0 126 248 333 q188 195 226 296 l-11 16 l-93 -10 l-34 0 q-229 6 -237 26 l0 5 q7 13 122 53 q71 32 226 127 l82 21 q149 -23 149 -105 l-5 -64 l22 -10 l50 10 l38 0 q44 0 149 -69 l50 -10 l22 0 q42 0 171 180 l5 21 q0 21 -143 68 l-44 32 l11 11 l116 -11 l93 21 ZM683 898 q0 -12 49 -43 l6 -26 l0 -11 q-17 -94 -44 -158 l0 -6 q161 70 209 101 q127 95 320 275 l0 10 q-110 82 -127 106 q-90 95 -176 95 q-16 -4 -77 -143 q-85 -101 -144 -153 l-16 -47 ZM1251 977 q-231 -189 -320 -275 q3 -16 22 -21 q325 136 325 180 l6 95 q-6 21 -33 21 ZM1328 596 l0 -5 l11 -11 l6 0 q215 171 215 275 q0 14 -28 27 q-142 -83 -160 -117 l-44 -169 ZM1058 527 q10 -1 33 -52 l27 -27 l23 0 q45 0 88 201 l-6 16 l-22 0 q-143 -102 -143 -138 ZM617 570 l-28 -48 l5 -5 l6 0 q31 0 50 47 l-6 6 l-27 0 ZM1240 290 q8 -22 16 -22 q30 0 149 133 l0 5 q-21 69 -38 69 l-17 0 q-94 -72 -94 -159 l-16 -26 Z" /><glyph glyph-name="" unicode="&#x5f53;" d="M836 1530 q117 -58 220 -165 l10 0 l155 55 l25 0 l0 -5 q-7 -19 -100 -55 q0 -20 -30 -20 l-50 -50 l0 -10 q0 -10 15 -10 q79 57 130 75 q79 52 90 75 l-10 15 q34 45 80 45 q135 -70 135 -155 l0 -95 l-20 -30 l15 -15 l145 20 q115 -50 115 -110 l0 -10 q0 -103 -105 -145 q-20 0 -220 -85 q-98 -35 -150 -35 l-25 0 l-10 10 l165 125 l80 85 q0 23 -65 30 q-438 0 -485 -90 l-20 -5 l-35 20 l-205 -140 l-85 -35 l-15 0 q-57 0 -95 110 l0 35 q3 30 15 30 l15 0 l35 -25 q110 41 110 55 l0 5 q-155 138 -155 200 l15 10 q47 -55 110 -55 l25 0 q104 8 250 100 l10 20 q-69 89 -105 210 l20 15 ZM1181 1175 l0 -20 l170 15 l5 0 l0 25 l-50 5 l-10 0 l-115 -25 ZM371 1030 l10 0 q85 -112 85 -195 q30 -212 45 -255 q0 -60 -35 -60 l-50 10 l-35 -5 q-75 0 -95 150 q30 205 65 305 l0 40 l10 10 ZM1096 840 q150 -20 150 -110 l0 -10 q0 -35 -140 -185 l-125 -70 l-45 -5 l-25 0 q-25 14 -25 30 q0 115 35 115 l20 5 l0 20 q-41 8 -80 40 l-5 0 l-10 -10 l0 -15 l15 -145 l0 -180 l-5 -5 q7 -20 15 -20 l10 0 q45 0 345 165 q85 25 125 25 q155 -27 155 -115 l5 -5 l0 -5 q-25 -243 -90 -400 q-36 -84 -155 -150 l-5 0 q-42 0 -100 120 q-19 15 -35 15 q-49 -6 -255 -125 l-20 0 q-147 42 -165 75 l0 5 q55 15 55 50 l5 0 q-25 67 -25 165 q0 244 85 695 l5 5 l5 0 q10 0 25 -60 l20 -15 q33 0 215 100 l20 0 ZM1141 290 q0 -20 115 -35 l15 -25 l0 -5 q0 -37 -85 -80 q-10 -10 -10 -40 l-5 0 q5 -20 30 -20 q130 7 130 35 q25 84 25 175 q-14 65 -40 65 q-42 0 -175 -65 l0 -5 ZM891 170 l-5 0 l-20 5 q-20 -5 -20 -20 q0 -21 25 -35 q165 80 165 95 l0 10 l-10 10 l-25 0 q-97 -65 -110 -65 ZM886 25 q11 -30 30 -35 q130 32 130 65 l0 5 q-5 15 -30 15 q-27 -14 -115 -30 l-15 -20 Z" /><glyph glyph-name="" unicode="&#x5f97;" d="M1503 1536 q122 -20 122 -81 l0 -16 q0 -48 -117 -328 l0 -5 q0 -21 51 -72 q0 -56 -107 -65 l-10 -21 q0 -25 208 -50 q46 -31 46 -71 q-1 -13 -56 -50 l0 -10 l193 -61 l21 -35 q0 -21 -117 -72 q-178 -103 -178 -111 l0 -10 l-5 0 q96 -450 96 -561 l0 -41 q0 -111 -101 -111 l-36 0 q-230 33 -275 66 q0 10 15 10 q200 0 219 56 l6 35 q-15 269 -46 480 l-15 10 q-261 -152 -367 -152 l-30 0 q-92 9 -92 26 l0 5 q0 10 132 25 q338 193 372 228 l4 5 l0 6 l-4 156 l-21 15 l-142 -55 l-163 -51 q-229 8 -229 41 l0 4 q0 16 199 41 q43 0 275 111 q71 21 71 56 q-80 54 -113 55 q-46 -45 -81 -45 q-150 16 -280 65 l-9 11 l0 5 q0 10 15 10 l127 -15 l10 0 q31 0 31 31 q-123 170 -123 217 l-76 76 l10 10 q172 -55 270 -101 l168 55 q46 0 46 40 q6 0 15 82 l-21 10 q-130 -40 -208 -40 l-66 0 q-39 0 -46 20 l0 4 l274 122 q31 41 138 41 ZM511 1404 l4 0 q235 -61 235 -101 q66 -80 66 -101 q-11 -46 -66 -46 l-51 0 q-70 0 -157 -25 l-6 5 l0 15 q56 72 56 102 q0 23 -91 141 l10 10 ZM1259 1116 l0 -5 q7 -48 35 -66 q82 31 82 71 l0 10 l-15 15 q-102 -11 -102 -25 ZM475 873 q86 -85 153 -254 q0 -32 -51 -146 q-31 -120 -41 -217 q0 -82 31 -82 l71 117 l5 0 l10 -11 q0 -52 -111 -308 l15 -156 q-8 -21 -26 -31 l-5 0 q-73 0 -117 127 l0 10 q77 164 77 597 q10 144 29 217 l0 5 l-50 127 l5 5 l5 0 ZM1544 746 l-10 -75 q0 -29 25 -46 q46 23 46 56 q-30 54 -51 65 l-10 0 ZM1126 164 l31 0 q127 0 142 -151 l0 -10 q-20 -31 -50 -31 l-16 0 q-37 16 -86 106 q-32 32 -87 32 q-43 0 -71 -62 l-10 0 l-5 6 l-5 0 q0 71 157 110 Z" /><glyph glyph-name="" unicode="&#x5faa;" d="M1525 1510 q116 0 165 -74 q52 -46 52 -101 l0 -6 q0 -108 -207 -165 l-73 -58 l0 -6 q0 -12 83 -26 q48 -19 78 -64 q15 -48 31 -64 l36 5 l78 0 q43 0 51 -69 q-35 -128 -165 -128 q-31 -17 -31 -79 l0 -6 l15 -16 q34 16 73 16 l15 0 q129 0 166 -122 q0 -435 41 -729 l0 -32 q-33 -48 -83 -48 q-47 59 -62 59 l-155 -22 l-31 0 q-51 0 -165 64 l-11 0 l0 -10 l11 -59 l0 -32 l-31 -32 l-16 0 q-85 0 -108 155 l0 53 l31 196 l0 96 q0 26 -16 53 l21 48 l-21 224 q19 21 88 21 l10 -21 l-15 -43 l0 -5 l10 -11 l16 0 q31 58 41 112 q-22 55 -62 75 l-10 0 l-114 -16 l-36 5 q-26 -8 -26 -37 l5 -32 q0 -257 -62 -533 q-75 -260 -222 -260 q-73 11 -73 32 q0 20 73 112 q65 113 113 281 q42 100 42 426 q0 27 -47 59 l0 5 l36 32 q-10 139 -36 139 q-46 0 -46 42 l-6 37 l-15 0 q-20 0 -62 -276 q-9 -8 -36 -112 q-15 -15 -62 -128 q0 -12 67 -69 l5 -22 q-57 -260 -57 -483 q0 -151 21 -341 q0 -25 -47 -32 q-160 92 -160 218 l0 5 q0 29 72 150 l16 175 l-5 26 l10 91 l0 10 l-15 16 l-11 0 l-98 -122 q0 -31 -78 -74 q-45 -62 -181 -96 l-10 0 q-77 0 -119 53 q-20 0 -36 27 l0 69 l109 117 q171 80 237 160 q144 186 187 351 l20 58 q-7 22 -15 22 q-93 0 -212 -160 l-78 -85 q-30 -48 -124 -48 q-101 52 -114 112 q40 85 135 85 q57 32 129 53 q227 242 274 399 q21 64 21 240 l0 21 q-62 74 -62 96 l15 11 q63 -10 223 -144 l15 -21 l0 -11 q0 -47 -98 -218 l-5 -21 q0 -17 88 -48 l5 5 l0 5 l-11 59 l16 16 q176 -21 176 -48 l20 0 q111 82 331 277 q52 69 68 106 q0 24 -68 37 l0 11 q0 13 68 37 ZM1173 925 l15 -91 l0 -58 q0 -12 26 -16 q175 71 217 101 l0 5 q0 99 -77 144 q0 21 -16 21 q-95 -28 -165 -106 ZM764 951 q-42 -43 -77 -111 q5 -22 31 -22 q53 0 72 112 q-5 21 -26 21 ZM1395 408 l5 -21 l-5 -69 l26 -11 q138 101 212 112 l21 0 q43 0 72 -64 q0 -36 -227 -122 l-26 0 l-62 5 l-16 -27 q0 -122 36 -122 l6 0 q24 0 170 85 l16 0 q38 0 88 -53 l0 -11 q-11 -16 -192 -64 l-88 -21 l-10 0 l-5 32 l-16 -5 l0 -11 l11 -16 l0 -5 q0 -18 -16 -37 l0 -16 q3 -85 31 -85 q81 0 217 48 l37 5 l20 0 l62 -5 l16 26 l-5 101 l5 16 l-10 186 l5 32 l-5 53 l0 48 q0 176 -37 176 l-41 5 q-27 0 -186 -74 q-67 0 -109 -91 Z" /></font>
</defs>
</svg>
